<?xml version="1.0" encoding="UTF-8" standalone="no"?>
<!-- Created with Inkscape (http://www.inkscape.org/) -->

<svg
   version="1.1"
   id="svg1"
   width="51.200001"
   height="70.400002"
   viewBox="0 0 51.200001 70.400002"
   sodipodi:docname="240_F_168962852_2fdQVo0yXgLVaLgw6ttwjHxZqFrRfNtY.svg"
   inkscape:version="1.4 (86a8ad7, 2024-10-11)"
   xmlns:inkscape="http://www.inkscape.org/namespaces/inkscape"
   xmlns:sodipodi="http://sodipodi.sourceforge.net/DTD/sodipodi-0.dtd"
   xmlns="http://www.w3.org/2000/svg"
   xmlns:svg="http://www.w3.org/2000/svg">
  <defs
     id="defs1" />
  <sodipodi:namedview
     id="namedview1"
     pagecolor="#ffffff"
     bordercolor="#000000"
     borderopacity="0.25"
     inkscape:showpageshadow="2"
     inkscape:pageopacity="0.0"
     inkscape:pagecheckerboard="0"
     inkscape:deskcolor="#d1d1d1"
     inkscape:zoom="0.76272614"
     inkscape:cx="612.93297"
     inkscape:cy="4.588803"
     inkscape:window-width="2560"
     inkscape:window-height="1417"
     inkscape:window-x="-8"
     inkscape:window-y="-8"
     inkscape:window-maximized="1"
     inkscape:current-layer="g1" />
  <g
     inkscape:groupmode="layer"
     inkscape:label="Image"
     id="g1">
    <g
       id="g2">
      <path
         style="fill:#d9e5ec"
         d="M 15.356461,69.753388 C 15.16613,69.397751 15.107646,68.949433 15.226498,68.757127 15.629272,68.105424 18.07054,67.246749 20.16,67.02185 c 2.913243,-0.313567 3.02803,-0.415437 2.065016,-1.83264 -0.444449,-0.654065 -0.736088,-1.189209 -0.648088,-1.189209 0.250383,0 1.783072,2.348266 1.783072,2.731883 0,0.188824 -1.074505,0.523865 -2.387789,0.744536 -2.639174,0.443459 -4.134035,1.311598 -3.452211,2.004867 0.656623,0.667645 0.462936,0.918715 -0.708741,0.918715 -0.785015,0 -1.209782,-0.188796 -1.454798,-0.646614 z m 17.968089,0.02726 c 0.67231,-0.551194 0.702624,-0.672814 0.275451,-1.105089 -0.5069,-0.512954 -3.786494,-1.475556 -5.027232,-1.475556 -0.896305,0 -1.002349,-0.997645 -0.172769,-1.625384 0.476408,-0.360496 0.500292,-0.356791 0.16,0.02482 -0.63235,0.709129 -0.48366,0.918121 0.8,1.124439 3.606685,0.579689 5.813461,1.196408 6.332231,1.769643 0.54283,0.59982 0.542309,0.653726 -0.01223,1.266486 -0.393245,0.43453 -0.98559,0.64 -1.845047,0.64 H 32.569099 Z M 30.08,62.919184 c 0,-0.06645 0.252,-0.31845 0.56,-0.56 0.507538,-0.398039 0.518857,-0.38672 0.120818,0.120817 C 30.34278,63.013041 30.08,63.182555 30.08,62.919184 Z M 19.479183,61.200001 C 19.081144,60.692464 19.092462,60.681145 19.6,61.079184 c 0.308,0.24155 0.56,0.49355 0.56,0.56 0,0.263371 -0.262779,0.09386 -0.680817,-0.439183 z M 32.32,59.719184 c 0,-0.06645 0.252,-0.31845 0.56,-0.56 0.507538,-0.398039 0.518857,-0.386721 0.120818,0.120817 C 32.58278,59.813041 32.32,59.982555 32.32,59.719184 Z M 17.879183,58.960001 C 17.481144,58.452463 17.492462,58.441145 18,58.839184 c 0.308,0.24155 0.56,0.49355 0.56,0.56 0,0.263371 -0.262779,0.09386 -0.680817,-0.439183 z m 16.040818,-1.480817 c 0,-0.06645 0.252,-0.31845 0.56,-0.56 0.507537,-0.398039 0.518856,-0.386721 0.120817,0.120817 -0.418038,0.53304 -0.680817,0.702554 -0.680817,0.439183 z M 16,56.320001 c -0.375969,-0.528 -0.61158,-0.96 -0.52358,-0.96 0.088,0 0.467611,0.432 0.84358,0.96 0.375969,0.528 0.611581,0.96 0.523581,0.96 -0.088,0 -0.467612,-0.432 -0.843581,-0.96 z m 20.160001,-2.040818 c 0,-0.06645 0.252,-0.318449 0.56,-0.56 0.507537,-0.398038 0.518856,-0.38672 0.120817,0.120818 -0.418038,0.53304 -0.680817,0.702553 -0.680817,0.439182 z M 13.76,53.120001 c -0.375969,-0.528 -0.61158,-0.96 -0.52358,-0.96 0.088,0 0.467611,0.432 0.84358,0.96 0.375969,0.528 0.611581,0.96 0.523581,0.96 -0.088,0 -0.467612,-0.432 -0.843581,-0.96 z m 24.640001,-2.040818 c 0,-0.06645 0.252,-0.318449 0.56,-0.56 0.507537,-0.398038 0.518856,-0.38672 0.120817,0.120818 -0.418038,0.533039 -0.680817,0.702553 -0.680817,0.439182 z M 11.799182,50.320001 c -0.398038,-0.507538 -0.38672,-0.518856 0.120818,-0.120818 0.308,0.241551 0.56,0.493551 0.56,0.56 0,0.263371 -0.262779,0.09386 -0.680818,-0.439182 z m -2.2399995,-3.2 c -0.3980387,-0.507538 -0.3867202,-0.518856 0.1208176,-0.120818 0.308,0.241551 0.5599999,0.493551 0.5599999,0.56 0,0.263371 -0.2627792,0.09386 -0.6808175,-0.439182 z m -0.830176,-1.12 c -0.4797385,-0.620301 -0.7815175,-1.2 -0.624695,-1.2 0.078145,0 0.3779633,0.36 0.6662624,0.8 0.5394664,0.82333 0.5094235,1.112431 -0.041567,0.4 z M 24.24,45.845695 c 0.748,-0.06737 1.972,-0.06737 2.72,0 0.748,0.06737 0.136,0.122493 -1.36,0.122493 -1.496,0 -2.108,-0.05512 -1.36,-0.122493 z M 19.032239,45.002952 C 16.261883,44.105184 13.468027,42.636011 11.36,40.968441 9.189246,39.251249 8.2467949,38.748972 7.0201024,38.655501 5.8788425,38.56854 4.7761207,37.323856 3.3302631,34.490639 2.4138937,32.694975 2.3136231,32.072043 3.1659359,33.469754 c 0.5018685,0.823016 0.7630093,0.966349 1.5501325,0.850824 0.8280343,-0.12153 1.0894061,0.05563 2.0869004,1.414485 3.3693072,4.589915 8.2803052,7.924885 13.8370312,9.396477 1.232,0.326272 1.88,0.594708 1.44,0.596524 -0.44,0.0018 -1.811492,-0.324484 -3.047761,-0.725112 z m 11.54781,0.156224 c 5.175438,-1.419363 9.655665,-4.360789 13.001332,-8.535827 1.314112,-1.639874 1.806795,-2.024434 2.796351,-2.18267 1.019214,-0.162979 1.289152,-0.387141 1.781801,-1.479641 0.319335,-0.708159 0.642811,-1.225361 0.718834,-1.149337 0.223373,0.223372 -1.712498,4.078519 -2.806177,5.588299 -0.876713,1.210267 -1.122944,1.36585 -1.911914,1.208056 -0.656296,-0.131259 -1.199428,0.03449 -1.972937,0.602091 -5.246273,3.849706 -9.43321,5.997789 -12.447176,6.385948 -1.06501,0.13716 -0.854972,0.0279 0.839886,-0.436919 z m 11.659952,0.480007 c 0,-0.06645 0.252,-0.318449 0.56,-0.56 0.507537,-0.398038 0.518856,-0.38672 0.120817,0.120818 -0.418038,0.533039 -0.680817,0.702553 -0.680817,0.439182 z m -18.63627,-1.065506 c 0.398052,-0.07654 0.974052,-0.07364 1.28,0.0065 0.305948,0.08009 -0.01973,0.142719 -0.723731,0.139167 -0.704,-0.0036 -0.954321,-0.06908 -0.556269,-0.145625 z m 3.036269,0.0057 c 0.308,-0.08049 0.812,-0.08049 1.12,0 0.308,0.08049 0.056,0.146343 -0.56,0.146343 -0.616,0 -0.868,-0.06585 -0.56,-0.146343 z M 7.3191824,43.920001 c -0.3980386,-0.507538 -0.3867201,-0.518856 0.1208177,-0.120818 0.308,0.241551 0.56,0.493551 0.56,0.56 0,0.263371 -0.2627794,0.09386 -0.6808177,-0.439182 z M 29.38,44.261404 c 0.231,-0.09244 0.507,-0.08107 0.613334,0.02526 0.106333,0.106333 -0.08267,0.181965 -0.42,0.16807 C 29.200552,44.439383 29.124726,44.363557 29.38,44.261404 Z M 15.2,42.162477 C 12.387533,40.667665 8.092093,36.260729 6.7544429,33.497699 6.173365,32.297432 5.764519,31.248815 5.8458962,31.167438 c 0.081377,-0.08138 0.3383107,0.324659 0.5709633,0.902302 1.5152541,3.762162 5.3109555,7.895966 9.1095465,9.920983 1.228477,0.654897 2.089594,1.191059 1.913594,1.191472 -0.176,4.13e-4 -1.184,-0.45846 -2.24,-1.019718 z m 19.066667,0.59822 c 0.329295,-0.294645 2.213334,-1.16045 2.213334,-1.017131 0,0.184314 -1.774023,1.136435 -2.117443,1.136435 -0.126073,0 -0.169224,-0.05369 -0.09589,-0.119304 z m 10.213334,-0.321514 c 0,-0.06645 0.252,-0.31845 0.56,-0.56 0.507537,-0.398038 0.518856,-0.38672 0.120817,0.120818 -0.418038,0.533039 -0.680817,0.702553 -0.680817,0.439182 z M 5.8490064,41.840001 c -0.4797384,-0.620302 -0.7815174,-1.2 -0.6246949,-1.2 0.078145,0 0.3779633,0.36 0.6662624,0.8 0.5394664,0.82333 0.5094234,1.112431 -0.041567,0.4 z M 36.800001,41.511233 c 0,-0.0707 0.864437,-0.799831 1.920971,-1.620304 2.185659,-1.697318 4.461906,-4.598758 5.814044,-7.410928 0.507742,-1.056 0.830741,-1.56 0.717774,-1.12 -0.695088,2.707343 -4.02709,7.114301 -6.970945,9.219883 -0.815015,0.582936 -1.481844,1.002043 -1.481844,0.931349 z M 23.253334,39.146668 C 23.136,39.029334 23.04,38.050134 23.04,36.970667 c 0,-1.117564 -0.172235,-2.155814 -0.4,-2.411233 -0.340291,-0.381609 -0.316407,-0.385313 0.16,-0.02482 0.429757,0.325195 0.56,0.894997 0.56,2.449946 v 2.026197 l 2.16,0.111946 2.16,0.111945 -2.106666,0.06268 c -1.158667,0.03447 -2.202667,-0.03332 -2.32,-0.150658 z m 23.786667,-0.426667 c 0.188384,-0.352 0.414517,-0.64 0.502517,-0.64 0.088,0 0.0059,0.288 -0.182517,0.64 -0.188385,0.352 -0.414518,0.64 -0.502518,0.64 -0.088,0 -0.0059,-0.288 0.182518,-0.64 z m -19.06513,-1.894403 c 0.01931,-1.824475 0.136301,-2.404502 0.505129,-2.504362 0.338231,-0.09157 0.366657,-0.04927 0.09624,0.14325 -0.212328,0.151163 -0.437975,1.26989 -0.505129,2.504362 l -0.121372,2.231153 z M 3.04,37.440001 c -0.2730394,-0.528 -0.4244353,-0.96 -0.3364353,-0.96 0.088,0 0.3833959,0.432 0.6564354,0.96 0.2730394,0.528 0.4244352,0.96 0.3364352,0.96 -0.088,0 -0.3833958,-0.432 -0.6564353,-0.96 z M 1.7995324,35.02763 C 1.4907392,34.222928 1.581833,34.015292 1.9590632,34.664002 c 0.1867809,0.3212 0.2721916,0.651411 0.1898016,0.733801 -0.08239,0.08239 -0.2395896,-0.08419 -0.3493324,-0.370173 z M 31.540574,33.8262 c 0.12017,-0.315591 0.299102,-0.493191 0.397625,-0.394667 0.09852,0.09852 2.03e-4,0.356734 -0.21849,0.573801 -0.316038,0.313686 -0.352794,0.276929 -0.179135,-0.179134 z M 18.905263,32.773334 c 0.01535,-0.372782 0.09118,-0.448608 0.193334,-0.193333 0.09244,0.231 0.08107,0.507 -0.02526,0.613333 -0.106334,0.106333 -0.181965,-0.08267 -0.168071,-0.42 z m -0.32,-1.28 c 0.01535,-0.372782 0.09118,-0.448608 0.193334,-0.193333 0.09244,0.231 0.08107,0.507 -0.02526,0.613333 -0.106334,0.106333 -0.181965,-0.08267 -0.168071,-0.42 z m 13.760001,-0.32 c 0.01535,-0.372782 0.09118,-0.448608 0.193333,-0.193333 0.09244,0.231 0.08107,0.507 -0.02526,0.613333 -0.106334,0.106333 -0.181965,-0.08267 -0.16807,-0.42 z m -30.7200008,-0.96 c 0.015355,-0.372782 0.091181,-0.448608 0.1933333,-0.193333 0.092439,0.231 0.08107,0.507 -0.025263,0.613333 -0.1063334,0.106333 -0.181965,-0.08267 -0.1680702,-0.42 z m 16.6399998,0 c 0.01535,-0.372782 0.09118,-0.448608 0.193334,-0.193333 0.09244,0.231 0.08107,0.507 -0.02526,0.613333 -0.106334,0.106333 -0.181965,-0.08267 -0.168071,-0.42 z m 14.400001,-0.32 c 0.01535,-0.372782 0.09118,-0.448608 0.193333,-0.193333 0.09244,0.231 0.08107,0.507 -0.02526,0.613333 -0.106334,0.106333 -0.181965,-0.08267 -0.16807,-0.42 z m 12.828835,0.346667 c -0.0072,-0.176 0.181679,-1.184 0.419628,-2.24 0.270036,-1.198396 0.433473,-1.559198 0.434863,-0.96 0.002,0.867553 -0.823619,3.959474 -0.854491,3.2 z m 3.811165,-0.346667 c 0.01535,-0.372782 0.09118,-0.448608 0.193333,-0.193333 0.09244,0.231 0.08107,0.507 -0.02526,0.613333 -0.106333,0.106333 -0.181965,-0.08267 -0.16807,-0.42 z m -44.1600008,-0.64 c 0.015355,-0.372782 0.091181,-0.448608 0.1933334,-0.193333 0.092439,0.231 0.08107,0.507 -0.025263,0.613333 -0.1063333,0.106333 -0.1819649,-0.08267 -0.1680702,-0.42 z M 1.3305263,28.800001 c 0,-0.44 0.072632,-0.62 0.1614035,-0.4 0.088772,0.22 0.088772,0.58 0,0.8 -0.088772,0.22 -0.1614035,0.04 -0.1614035,-0.4 z m 16.6147367,0.133333 c 0.01535,-0.372782 0.09118,-0.448608 0.193334,-0.193333 0.09244,0.231 0.08107,0.507 -0.02526,0.613333 -0.106334,0.106333 -0.181965,-0.08267 -0.168071,-0.42 z m 15.040001,-0.32 c 0.01535,-0.372782 0.09118,-0.448608 0.193333,-0.193333 0.09244,0.231 0.08107,0.507 -0.02526,0.613333 -0.106334,0.106333 -0.181965,-0.08267 -0.16807,-0.42 z m 16.64,-0.32 c 0.01535,-0.372782 0.09118,-0.448608 0.193333,-0.193333 0.09244,0.231 0.08107,0.507 -0.02526,0.613333 -0.106333,0.106333 -0.181965,-0.08267 -0.16807,-0.42 z M 4.8505264,27.840001 c 0,-0.44 0.072632,-0.62 0.1614035,-0.4 0.088772,0.22 0.088772,0.58 0,0.8 -0.088772,0.22 -0.1614035,0.04 -0.1614035,-0.4 z M 17.625263,27.653334 c 0.01535,-0.372782 0.09118,-0.448608 0.193334,-0.193333 0.09244,0.231 0.08107,0.507 -0.02526,0.613333 -0.106334,0.106333 -0.181965,-0.08267 -0.168071,-0.42 z M 1.0471565,26.240001 c 0,-0.792 0.062405,-1.116 0.1386781,-0.72 0.076273,0.396 0.076273,1.044 0,1.44 -0.076273,0.396 -0.1386781,0.072 -0.1386781,-0.72 z m 49.8581075,0.773333 c 0.01535,-0.372782 0.09118,-0.448608 0.193333,-0.193333 0.09244,0.231 0.08107,0.507 -0.02526,0.613333 -0.106333,0.106333 -0.181965,-0.08267 -0.16807,-0.42 z M 50.03536,24.320001 c 0,-1.672001 0.05393,-2.356001 0.119853,-1.520001 0.06592,0.836001 0.06592,2.204001 0,3.040001 -0.06592,0.836 -0.119853,0.152 -0.119853,-1.52 z m -32.730097,2.053333 c 0.01535,-0.372782 0.09118,-0.448608 0.193334,-0.193333 0.09244,0.231 0.08107,0.507 -0.02526,0.613333 -0.106334,0.106333 -0.181965,-0.08267 -0.168071,-0.42 z M 4.5875861,24.320001 c 0,-1.320001 0.056486,-1.860001 0.1255239,-1.2 0.069038,0.66 0.069038,1.74 0,2.4 -0.069038,0.66 -0.1255239,0.12 -0.1255239,-1.2 z m 29.0376779,1.733333 c 0.01535,-0.372782 0.09118,-0.448608 0.193333,-0.193333 0.09244,0.231 0.08107,0.507 -0.02526,0.613333 -0.106333,0.106333 -0.181965,-0.08267 -0.16807,-0.42 z m 0.32,-1.28 c 0.01535,-0.372782 0.09118,-0.448608 0.193333,-0.193333 0.09244,0.231 0.08107,0.507 -0.02526,0.613333 -0.106333,0.106333 -0.181965,-0.08267 -0.16807,-0.42 z m 12.51712,-0.613333 c 0.0065,-0.528 0.07824,-0.70526 0.159374,-0.39391 0.08113,0.311349 0.0758,0.743349 -0.01186,0.96 -0.08766,0.21665 -0.154037,-0.03809 -0.147516,-0.56609 z M 16.665263,23.813334 c 0.01535,-0.372782 0.09118,-0.448608 0.193334,-0.193333 0.09244,0.231 0.08107,0.507 -0.02526,0.613333 -0.106334,0.106333 -0.181965,-0.08267 -0.168071,-0.42 z m 17.600001,-0.32 c 0.01535,-0.372782 0.09118,-0.448608 0.193333,-0.193333 0.09244,0.231 0.08107,0.507 -0.02526,0.613333 -0.106333,0.106333 -0.181965,-0.08267 -0.16807,-0.42 z M 1.0471565,22.08 c 0,-0.792 0.062405,-1.116 0.1386781,-0.72 0.076273,0.396 0.076273,1.044 0,1.44 -0.076273,0.396001 -0.1386781,0.072 -0.1386781,-0.72 z m 15.2981065,0.453334 c 0.01535,-0.372782 0.09118,-0.448608 0.193334,-0.193334 0.09244,0.231 0.08107,0.507 -0.02526,0.613334 -0.106334,0.106333 -0.181965,-0.08267 -0.168071,-0.42 z m 18.240001,-0.32 c 0.01535,-0.372782 0.09118,-0.448608 0.193333,-0.193334 0.09244,0.231 0.08107,0.507 -0.02526,0.613334 -0.106333,0.106333 -0.181965,-0.08267 -0.16807,-0.42 z m -18.560001,-0.96 c 0.01535,-0.372782 0.09118,-0.448608 0.193334,-0.193334 0.09244,0.231 0.08107,0.507 -0.02526,0.613334 -0.106334,0.106333 -0.181965,-0.08267 -0.168071,-0.42 z M 46.142384,20.96 c 0.0065,-0.528 0.07824,-0.705259 0.159374,-0.393909 0.08113,0.311349 0.0758,0.743349 -0.01186,0.96 C 46.202245,21.742741 46.135863,21.488 46.142384,20.96 Z m -11.23712,-0.02667 c 0.01535,-0.372782 0.09118,-0.448608 0.193333,-0.193334 0.09244,0.231 0.08107,0.507 -0.02526,0.613334 -0.106333,0.106333 -0.181965,-0.08267 -0.16807,-0.42 z M 4.8505264,20.16 c 0,-0.44 0.072632,-0.62 0.1614035,-0.4 0.088772,0.22 0.088772,0.58 0,0.8 -0.088772,0.22 -0.1614035,0.04 -0.1614035,-0.4 z M 49.662384,20 c 0.0065,-0.528 0.07824,-0.705259 0.159374,-0.393909 0.08113,0.311349 0.0758,0.743349 -0.01186,0.96 C 49.722245,20.782741 49.655863,20.528 49.662384,20 Z M 1.3305263,19.52 c 0,-0.44 0.072632,-0.62 0.1614035,-0.4 0.088772,0.22 0.088772,0.58 0,0.8 -0.088772,0.22 -0.1614035,0.04 -0.1614035,-0.4 z M 17.664,19.776 c -0.2112,-0.2112 -0.374872,-0.6072 -0.363716,-0.88 0.01234,-0.301623 0.13454,-0.211563 0.311838,0.229811 l 0.291554,0.725811 7.598912,-0.08581 7.598911,-0.08581 0.404534,-0.8 c 0.276998,-0.547788 0.40602,-0.630657 0.40925,-0.262857 0.0026,0.295429 -0.221568,0.763429 -0.49814,1.04 -0.428278,0.428279 -1.605264,0.502857 -7.936,0.502857 -5.354667,0 -7.540518,-0.107375 -7.817143,-0.384 z m 17.561264,-0.122666 c 0.01535,-0.372782 0.09118,-0.448608 0.193333,-0.193334 0.09244,0.231 0.08107,0.507 -0.02526,0.613334 -0.106333,0.106333 -0.181965,-0.08267 -0.16807,-0.42 z m 10.56,-0.64 c 0.01535,-0.372782 0.09118,-0.448608 0.193333,-0.193334 0.09244,0.231 0.08107,0.507 -0.02526,0.613334 -0.106333,0.106333 -0.181965,-0.08267 -0.16807,-0.42 z M 5.1242811,18.85285 C 5.1181951,18.131867 6.3570668,14.453094 7.0541602,13.122163 8.0037909,11.309074 10.42903,8.4384087 12.1814,7.0532394 14.189931,5.4655875 18.600517,3.2858415 20.32,3.0310805 21.208899,2.89938 20.817089,3.116208 19.037682,3.740717 15.766102,4.888926 13.934391,5.9760559 11.546655,8.186678 9.1604035,10.395926 7.187129,13.473404 6.0238045,16.8 5.5314212,18.208 5.1266356,19.131783 5.1242811,18.85285 Z M 15.385263,18.693334 c 0.01535,-0.372782 0.09118,-0.448608 0.193334,-0.193334 0.09244,0.231 0.08107,0.507 -0.02526,0.613334 -0.106334,0.106333 -0.181965,-0.08267 -0.168071,-0.42 z m 20.160001,-0.32 c 0.01535,-0.372782 0.09118,-0.448608 0.193333,-0.193334 0.09244,0.231 0.08107,0.507 -0.02526,0.613334 -0.106333,0.106333 -0.181965,-0.08267 -0.16807,-0.42 z m 13.76,0 c 0.01535,-0.372782 0.09118,-0.448608 0.193333,-0.193334 0.09244,0.231 0.08107,0.507 -0.02526,0.613334 -0.106333,0.106333 -0.181965,-0.08267 -0.16807,-0.42 z M 1.6486899,18.24 c 0,-0.264 0.1940896,-0.984 0.4313101,-1.6 0.2372206,-0.616 0.4313102,-0.904 0.4313102,-0.64 0,0.264 -0.1940896,0.984 -0.4313102,1.6 -0.2372205,0.616 -0.4313101,0.904 -0.4313101,0.64 z M 17.010527,17.6 c 0,-0.44 0.07263,-0.62 0.161403,-0.4 0.08877,0.22 0.08877,0.58 0,0.8 -0.08877,0.22 -0.161403,0.04 -0.161403,-0.4 z m 28.454737,0.174758 C 45.414323,16.514011 42.579849,11.327098 40.946759,9.506173 37.968043,6.1848496 33.868804,3.8996593 29.28,3.0023409 L 27.04,2.5643197 28.869863,2.7237638 C 34.525039,3.2165247 41.205308,7.7705103 43.88546,12.96 c 1.33373,2.582458 1.99568,4.47314 1.765541,5.042789 -0.08826,0.218466 -0.171842,0.115852 -0.185737,-0.228031 z M 33.970527,17.28 c 0,-0.44 0.07263,-0.62 0.161403,-0.4 0.08877,0.22 0.08877,0.58 0,0.8 -0.08877,0.22 -0.161403,0.04 -0.161403,-0.4 z m 16.294737,0.133334 c 0.01535,-0.372782 0.09118,-0.448608 0.193333,-0.193334 0.09244,0.231 0.08107,0.507 -0.02526,0.613334 -0.106333,0.106333 -0.181965,-0.08267 -0.16807,-0.42 z M 0.65496784,17.366476 c -0.0187152,-0.492049 0.98465466,-3.03352 1.13734726,-2.880827 0.06171,0.06171 -0.1655802,0.823684 -0.5050896,1.693276 -0.33950941,0.869591 -0.62402535,1.403989 -0.63225766,1.187551 z M 48.566155,16.073847 c -0.698349,-1.942027 -0.483542,-2.156835 0.246153,-0.246154 0.30805,0.806617 0.499293,1.527374 0.424984,1.601683 -0.07431,0.07431 -0.376321,-0.535679 -0.671137,-1.355529 z m -33.820892,0.05949 c 0.01535,-0.372782 0.09118,-0.448608 0.193334,-0.193334 0.09244,0.231 0.08107,0.507 -0.02526,0.613334 -0.106334,0.106333 -0.181965,-0.08267 -0.168071,-0.42 z m 35.05427,0.01429 c -0.308793,-0.804702 -0.217699,-1.012337 0.159531,-0.363628 0.186781,0.321201 0.272192,0.651411 0.189802,0.733801 -0.08239,0.08239 -0.23959,-0.08419 -0.349333,-0.370173 z M 34.201972,15.429946 c -0.105422,-0.63591 -0.05846,-0.934436 0.119067,-0.756907 0.161231,0.161231 0.239567,0.633755 0.17408,1.050054 -0.100761,0.640538 -0.145831,0.595468 -0.293147,-0.293147 z M 2.5684189,15.272012 C 2.5637885,15.135618 3.0510449,14.048938 3.6512107,12.857168 4.912451,10.35268 6.7500656,7.9311782 9.2669438,5.4570828 11.110803,3.6445663 10.813746,3.766083 8.2632599,5.8676584 6.5142857,7.3087961 4.3502847,9.9920009 2.9304153,12.48 c -0.5524252,0.968 -1.0057608,1.628652 -1.0074124,1.468115 -0.00165,-0.160537 0.3805573,-0.952537 0.849353,-1.76 2.3585324,-4.0623828 5.9766316,-7.7008857 9.8765511,-9.9322491 2.626829,-1.50295664 3.831897,-1.90432405 4.910405,-1.63549094 0.654912,0.16324593 0.500921,0.29592901 -1.12,0.96502364 C 10.676568,3.9641823 6.8288494,7.5119422 3.7760418,13.26147 3.1164796,14.503662 2.5730492,15.408405 2.5684189,15.272012 Z M 36.505264,14.533334 c 0.01536,-0.372782 0.09118,-0.448608 0.193333,-0.193334 0.09244,0.231 0.08107,0.507 -0.02526,0.613334 -0.106333,0.106333 -0.181965,-0.08267 -0.16807,-0.42 z m 12.654269,0.0143 c -0.308793,-0.804702 -0.217699,-1.012337 0.159531,-0.363628 0.186781,0.321201 0.272192,0.651411 0.189802,0.733801 -0.08239,0.08239 -0.23959,-0.08419 -0.349333,-0.370173 z M 32.9,14.181404 c 0.231,-0.09244 0.507,-0.08107 0.613334,0.02526 0.106333,0.106333 -0.08267,0.181965 -0.42,0.16807 C 32.720552,14.359382 32.644726,14.283556 32.9,14.181404 Z M 14.165643,13.626518 C 14.20654,13.289102 14.456,12.954139 14.72,12.882156 c 0.308729,-0.08418 0.354395,-0.03655 0.127982,0.133482 -0.19361,0.145399 -0.44307,0.480362 -0.554357,0.744362 -0.14217,0.337265 -0.180228,0.297571 -0.127982,-0.133482 z M 19.14,13.861404 c 0.231,-0.09244 0.507,-0.08107 0.613334,0.02526 0.106333,0.106333 -0.08267,0.181965 -0.42,0.16807 -0.372782,-0.01535 -0.448608,-0.09118 -0.193334,-0.193333 z m 12.48,0 c 0.231,-0.09244 0.507,-0.08107 0.613334,0.02526 0.106333,0.106333 -0.08267,0.181965 -0.42,0.16807 C 31.440552,14.039382 31.364726,13.963556 31.62,13.861404 Z M 46.551821,11.773103 C 45.102051,9.1855786 41.584431,5.4891092 38.835541,3.6645003 37.825718,2.9942181 36.019709,2.064596 34.822187,1.5986734 32.104983,0.54148424 32.007484,0.44113094 33.799461,0.54600895 35.674629,0.6557558 39.53515,2.6553329 42.342353,4.970845 c 1.973688,1.6279897 5.050636,5.328669 5.977459,7.189155 0.544681,1.093384 0.04973,0.506854 -1.373978,-1.628199 -1.217327,-1.8255544 -4.482925,-5.253126 -5.552489,-5.8278921 -0.326339,-0.1753696 0.426039,0.7465089 1.671952,2.0486188 2.016597,2.1075549 5.232342,6.8165003 4.889278,7.1595653 -0.07201,0.07201 -0.703254,-0.890531 -1.402754,-2.13899 z M 20.72,13.54807 c 0.22,-0.08877 0.58,-0.08877 0.8,0 0.22,0.08877 0.04,0.161404 -0.4,0.161404 -0.44,0 -0.62,-0.07263 -0.4,-0.161404 z m 8.96,0 c 0.22,-0.08877 0.58,-0.08877 0.8,0 0.22,0.08877 0.04,0.161404 -0.4,0.161404 -0.44,0 -0.62,-0.07263 -0.4,-0.161404 z m 6.867384,-0.300345 C 36.320445,13.001477 36.275947,12.8 36.448499,12.8 c 0.332301,0 0.813352,0.608709 0.623545,0.789015 -0.06162,0.05854 -0.297721,-0.09504 -0.52466,-0.34129 z M 24.24,13.205695 c 0.748,-0.06737 1.972,-0.06737 2.72,0 0.748,0.06737 0.136,0.122493 -1.36,0.122493 -1.496,0 -2.108,-0.05512 -1.36,-0.122493 z m 10.900001,-0.624291 c 0.231,-0.09244 0.507,-0.08107 0.613333,0.02526 0.106333,0.106333 -0.08267,0.181965 -0.42,0.16807 -0.372782,-0.01535 -0.448608,-0.09118 -0.193333,-0.193333 z M 16.88,12.26807 c 0.22,-0.08877 0.58,-0.08877 0.8,0 0.22,0.08877 0.04,0.161404 -0.4,0.161404 -0.44,0 -0.62,-0.07263 -0.4,-0.161404 z m 16.64,0 c 0.220001,-0.08877 0.580001,-0.08877 0.800001,0 0.22,0.08877 0.04,0.161404 -0.4,0.161404 C 33.48,12.429474 33.3,12.356842 33.52,12.26807 Z M 18.5,11.941404 c 0.231,-0.09244 0.507,-0.08107 0.613334,0.02526 0.106333,0.106333 -0.08267,0.181965 -0.42,0.16807 C 18.320552,12.119382 18.244726,12.043556 18.5,11.941404 Z m 13.42,0.0067 c 0.22,-0.08877 0.58,-0.08877 0.8,0 0.22,0.08877 0.04,0.161404 -0.4,0.161404 -0.44,0 -0.62,-0.07263 -0.4,-0.161404 z M 20.723731,11.613677 c 0.398052,-0.07654 0.974052,-0.07364 1.28,0.0065 0.305948,0.08009 -0.01973,0.142718 -0.723731,0.139167 -0.704,-0.0036 -0.954321,-0.06908 -0.556269,-0.145625 z M 29.04,11.614166 c 0.396,-0.07627 1.044,-0.07627 1.44,0 0.396,0.07627 0.072,0.138678 -0.72,0.138678 -0.792,0 -1.116,-0.06241 -0.72,-0.138678 z m -3.9956,-0.323792 c 0.48642,-0.07355 1.20642,-0.07159 1.6,0.0044 0.39358,0.07596 -0.0044,0.136136 -0.8844,0.133734 -0.88,-0.0024 -1.20202,-0.06455 -0.7156,-0.138102 z M 22.323731,2.6536766 c 0.398052,-0.076542 0.974052,-0.073636 1.28,0.00646 C 23.909679,2.740228 23.584,2.8028532 22.88,2.7993014 22.176,2.7957496 21.925679,2.7302184 22.323731,2.6536766 Z m 2.56,-0.32 c 0.398052,-0.076542 0.974052,-0.073636 1.28,0.00646 C 26.469679,2.420228 26.144,2.4828532 25.44,2.4793014 24.736,2.4757496 24.485679,2.4102184 24.883731,2.3336766 Z"
         id="path16" />
      <path
         style="fill:#d2d9e4"
         d="m 17.636579,69.699659 c -0.388802,-0.622571 -0.361877,-0.761473 0.242463,-1.250838 0.373908,-0.302773 1.724086,-0.73362 3.000396,-0.957439 1.276309,-0.223818 2.426357,-0.560941 2.555662,-0.749161 0.144492,-0.210327 0.236989,-0.142282 0.24,0.176555 0.0036,0.377703 -0.408436,0.57485 -1.5151,0.724988 -1.843876,0.250154 -3.12,0.853956 -3.12,1.476237 0,0.253605 0.36,0.643229 0.8,0.865833 0.775464,0.392319 0.760649,0.404877 -0.483025,0.40945 -0.976435,0.0036 -1.387538,-0.162636 -1.720396,-0.695625 z m 14.087971,0.06056 c 0.743264,-0.629466 0.745365,-0.647581 0.130232,-1.122967 C 31.146204,68.089646 29.314619,67.52445 28.24,67.521786 c -0.481378,-0.0012 -0.711627,-0.187379 -0.694736,-0.561785 0.01509,-0.33454 0.09024,-0.398957 0.186666,-0.16 0.08877,0.22 0.47915,0.4 0.867505,0.4 1.218716,0 4.498915,0.967914 5.000566,1.475556 0.427173,0.432275 0.396859,0.553895 -0.275451,1.105089 -0.415498,0.340645 -1.115451,0.619356 -1.555451,0.619356 h -0.8 z M 25.0444,46.170375 c 0.48642,-0.07355 1.20642,-0.07159 1.6,0.0044 0.39358,0.07596 -0.0044,0.136136 -0.8844,0.133733 -0.88,-0.0024 -1.20202,-0.06455 -0.7156,-0.138101 z M 22,45.868071 c 0.22,-0.08877 0.58,-0.08877 0.8,0 0.22,0.08877 0.04,0.161404 -0.4,0.161404 -0.44,0 -0.62,-0.07263 -0.4,-0.161404 z m 6.4,0 c 0.22,-0.08877 0.58,-0.08877 0.8,0 0.22,0.08877 0.04,0.161404 -0.4,0.161404 -0.44,0 -0.62,-0.07263 -0.4,-0.161404 z m -7.98,-0.326667 c 0.231,-0.09244 0.507,-0.08107 0.613334,0.02526 0.106333,0.106333 -0.08267,0.181965 -0.42,0.16807 -0.372782,-0.01535 -0.448608,-0.09118 -0.193334,-0.193334 z m 5.12,-0.96 c 0.231,-0.09244 0.507,-0.08107 0.613334,0.02526 0.106333,0.106333 -0.08267,0.181965 -0.42,0.16807 -0.372782,-0.01535 -0.448608,-0.09118 -0.193334,-0.193334 z m 8.700001,-0.421403 c 0.264,-0.17061 0.624,-0.3102 0.8,-0.3102 0.176,0 0.104,0.13959 -0.16,0.3102 -0.264,0.17061 -0.624,0.3102 -0.8,0.3102 -0.176,0 -0.104,-0.13959 0.16,-0.3102 z m 1.92,-0.777482 c 0,-0.088 0.288,-0.314133 0.64,-0.502518 0.352,-0.188385 0.64,-0.270518 0.64,-0.182518 0,0.088 -0.288,0.314133 -0.64,0.502518 -0.352,0.188385 -0.64,0.270518 -0.64,0.182518 z m 1.6,-0.911113 c 0,-0.07744 0.756,-0.668977 1.68,-1.314533 0.924,-0.645557 2.166482,-1.528049 2.761072,-1.961094 0.750904,-0.546889 1.316794,-0.728192 1.852895,-0.593639 0.511586,0.1284 1.008377,-0.0079 1.473412,-0.404212 0.75647,-0.644697 0.607518,-0.388238 -0.959583,1.652162 -0.935151,1.217588 -1.094372,1.294423 -2.833167,1.367183 -1.190794,0.04983 -2.219374,0.310119 -2.908481,0.73601 -0.586382,0.362404 -1.066148,0.595559 -1.066148,0.518123 z M 12.003937,41.851802 C 11.654102,41.648997 10.582224,41.455532 9.6219863,41.421881 7.7757074,41.357179 7.5966724,41.227324 5.6762034,38.560001 5.1372113,37.811399 5.11244,37.702415 5.5637122,38.065085 c 0.3182891,0.255796 0.888663,0.50691 1.2674977,0.558031 1.5478017,0.208863 2.1202913,0.460313 3.3120771,1.454738 0.686939,0.573181 1.60172,1.286594 2.032847,1.585362 0.893451,0.619158 0.781681,0.741566 -0.172197,0.188586 z m 0.115245,-2.091801 c -0.398038,-0.507538 -0.38672,-0.518856 0.120818,-0.120818 0.308,0.24155 0.56,0.49355 0.56,0.56 0,0.263371 -0.262779,0.09386 -0.680818,-0.439182 z m 28.040819,-1.36 c 0.687437,-0.704 1.321886,-1.28 1.409886,-1.28 0.088,0 -0.402449,0.576 -1.089886,1.28 -0.687438,0.704 -1.321887,1.28 -1.409887,1.28 -0.088,0 0.402449,-0.576 1.089887,-1.28 z m -30.7504048,-1.36 -0.6095961,-0.72 0.72,0.609596 c 0.396,0.335278 0.7199999,0.659278 0.7199999,0.72 0,0.256081 -0.257534,0.06703 -0.8304038,-0.609596 z M 20.2444,34.330375 c 0.48642,-0.07355 1.20642,-0.07159 1.6,0.0044 0.39358,0.07596 -0.0044,0.136136 -0.8844,0.133733 -0.88,-0.0024 -1.20202,-0.06455 -0.7156,-0.138101 z m 9.1156,0.0038 c 0.396,-0.07627 1.044,-0.07627 1.44,0 0.396,0.07627 0.072,0.138678 -0.72,0.138678 -0.792,0 -1.116,-0.06241 -0.72,-0.138678 z M 4.8252632,26.693334 c 0.015355,-0.372782 0.091181,-0.448608 0.1933334,-0.193333 0.092439,0.231 0.08107,0.507 -0.025263,0.613333 -0.1063333,0.106333 -0.1819649,-0.08267 -0.1680702,-0.42 z M 46.154242,25.280001 c 0,-0.616 0.06585,-0.868 0.146343,-0.56 0.08049,0.308 0.08049,0.812 0,1.12 -0.08049,0.308 -0.146343,0.056 -0.146343,-0.56 z m -45.41508386,-1.44 c 0.001796,-1.056001 0.0615362,-1.449422 0.13275588,-0.87427 0.0712197,0.575152 0.0697501,1.439152 -0.003266,1.92 -0.0730157,0.480848 -0.13128635,0.01027 -0.12949028,-1.04573 z M 46.154242,22.72 c 0,-0.616 0.06585,-0.868 0.146343,-0.56 0.08049,0.308 0.08049,0.812 0,1.120001 -0.08049,0.308 -0.146343,0.056 -0.146343,-0.560001 z M 4.8252632,21.253334 c 0.015355,-0.372782 0.091181,-0.448608 0.1933334,-0.193334 0.092439,0.231 0.08107,0.507 -0.025263,0.613334 -0.1063333,0.106333 -0.1819649,-0.08267 -0.1680702,-0.42 z M 49.970527,20.8 c 0,-0.44 0.07263,-0.62 0.161404,-0.4 0.08877,0.22 0.08877,0.58 0,0.8 -0.08877,0.22 -0.161404,0.04 -0.161404,-0.4 z M 1.0105263,20.16 c 0,-0.44 0.072632,-0.62 0.1614035,-0.4 0.088772,0.22 0.088772,0.58 0,0.8 -0.088772,0.22 -0.1614035,0.04 -0.1614035,-0.4 z M 16.665263,15.493334 c 0.01535,-0.372782 0.09118,-0.448608 0.193334,-0.193334 0.09244,0.231 0.08107,0.507 -0.02526,0.613334 -0.106334,0.106333 -0.181965,-0.08267 -0.168071,-0.42 z m 31.53427,-0.945705 c -0.308793,-0.804702 -0.217699,-1.012337 0.159531,-0.363628 0.186781,0.321201 0.272192,0.651411 0.189801,0.733801 -0.08239,0.08239 -0.239589,-0.08419 -0.349332,-0.370173 z m -46.2542698,0.07962 c -0.059133,-0.5916 1.2531814,-2.680585 1.6839615,-2.680585 0.3830652,0 0.3454995,0.257566 -0.2018935,1.384266 -0.3867415,0.79603 -0.7654486,1.233917 -0.8911934,1.030457 -0.1503402,-0.243255 -0.2728693,-0.217508 -0.3921383,0.0824 -0.09541,0.239915 -0.1848416,0.322473 -0.1987363,0.183461 z M 3.4973214,12.32 c 0,-0.176 -0.2057946,0.04 -0.4573214,0.48 -0.2515267,0.44 -0.4573213,0.944 -0.4573213,1.12 0,0.176 0.2057946,-0.04 0.4573213,-0.48 C 3.2915268,13 3.4973214,12.496 3.4973214,12.32 Z M 48.366165,13.2 c -0.349184,-0.816014 -0.341285,-0.834834 0.108636,-0.258838 0.26686,0.341639 0.4852,0.737639 0.4852,0.88 0,0.48637 -0.217067,0.259315 -0.593836,-0.621162 z m -5.486164,-0.72 c -0.188385,-0.352 -0.270518,-0.64 -0.182518,-0.64 0.088,0 0.314133,0.288 0.502518,0.64 0.188384,0.352 0.270517,0.64 0.182517,0.64 -0.088,0 -0.314133,-0.288 -0.502517,-0.64 z m 3.336528,-1.84 C 45.730171,9.8040002 44.312488,8.0563918 43.066122,6.7564261 41.819755,5.4564603 41.088001,4.5433617 41.440001,4.7273181 c 0.352,0.1839564 1.465346,1.1755648 2.474102,2.2035741 1.935005,1.9719372 4.232402,4.9151948 3.467727,4.4425998 -0.338055,-0.20893 -0.399557,-0.145489 -0.246253,0.254014 0.375744,0.979173 -0.02608,0.547417 -0.919048,-0.987506 z M 3.7122358,11.127929 C 4.4930127,9.7997716 6.9804586,6.9246742 8.2632599,5.8676584 10.901572,3.6937151 11.086959,3.6529373 9.0331014,5.6983237 7.9293071,6.7975654 6.4095627,8.5211325 5.6558916,9.5284727 4.9022205,10.535813 4.1026214,11.399568 3.8790048,11.447929 c -0.2504587,0.05416 -0.3144947,-0.06871 -0.166769,-0.32 z M 9.202197,10.72 c 0.3661752,-0.528 1.35749,-1.6079998 2.202922,-2.3999998 1.366237,-1.2798908 1.327052,-1.2087311 -0.352426,0.64 C 8.5245644,11.742908 8.4312399,11.831668 9.202197,10.72 Z M 22.8,11.299416 c 0.308,-0.08049 0.812,-0.08049 1.12,0 0.308,0.08049 0.056,0.146343 -0.56,0.146343 -0.616,0 -0.868,-0.06585 -0.56,-0.146343 z m 4.806091,-0.0012 c 0.311349,-0.08113 0.743349,-0.0758 0.96,0.01186 0.21665,0.08766 -0.03809,0.154038 -0.566091,0.147517 -0.528,-0.0065 -0.705259,-0.07824 -0.393909,-0.159374 z M 39.933028,8.9228876 c -1.356835,-1.4013534 -2.076835,-2.266345 -1.6,-1.9222034 0.818565,0.5907751 2.390952,2.1936529 3.727044,3.7993158 1.152084,1.38453 0.319981,0.650201 -2.127044,-1.8771124 z M 13.335397,6.6944139 C 13.732418,6.2138246 15.68,4.9885683 15.68,5.219385 c 0,0.074562 -0.612,0.5391897 -1.36,1.0325053 -0.748,0.4933155 -1.191071,0.6924511 -0.984603,0.4425236 z M 35.341162,5.2623469 C 34.744674,4.7844614 34.7486,4.7785532 35.440001,5.1136057 c 0.396,0.1919016 0.72,0.4158456 0.72,0.4976532 0,0.2448704 -0.165955,0.1741562 -0.818839,-0.348912 z M 16.96,4.4800001 c 0.264,-0.1706099 0.624,-0.3101998 0.8,-0.3101998 0.176,0 0.104,0.1395899 -0.16,0.3101998 -0.264,0.1706099 -0.624,0.3101998 -0.8,0.3101998 -0.176,0 -0.104,-0.1395899 0.16,-0.3101998 z m 3.46,-1.1785965 c 0.231,-0.092439 0.507,-0.08107 0.613334,0.025263 0.106333,0.1063334 -0.08267,0.181965 -0.42,0.1680702 C 20.240552,3.4793821 20.164726,3.403556 20.42,3.3014036 Z m 9.92,0 c 0.231,-0.092439 0.507,-0.08107 0.613334,0.025263 0.106333,0.1063334 -0.08267,0.181965 -0.42,0.1680702 C 30.160552,3.4793821 30.084726,3.403556 30.34,3.3014036 Z M 21.68,2.9880702 c 0.22,-0.088772 0.58,-0.088772 0.8,0 0.22,0.088772 0.04,0.1614036 -0.4,0.1614036 -0.44,0 -0.62,-0.072632 -0.4,-0.1614036 z m 7.06,-0.00667 c 0.231,-0.092439 0.507,-0.08107 0.613334,0.025263 0.106333,0.1063334 -0.08267,0.1819649 -0.42,0.1680702 C 28.560552,3.1593821 28.484726,3.083556 28.74,2.9814036 Z m -4.02,-0.330605 c 0.484,-0.07332 1.276,-0.07332 1.76,0 0.484,0.07332 0.088,0.1333089 -0.88,0.1333089 -0.968,0 -1.364,-0.059989 -0.88,-0.1333089 z"
         id="path15" />
      <path
         style="fill:#c9ced8"
         d="m 19.84,69.985834 c -1.679118,-0.849494 -0.665442,-1.832119 2.47086,-2.395174 0.918973,-0.164982 1.606165,-0.195287 1.527093,-0.06735 -0.07907,0.127941 -0.740995,0.328121 -1.470939,0.444844 C 20.869718,68.207586 19.84,68.677367 19.84,69.12104 c 0,0.164187 0.396,0.513355 0.88,0.77593 1.066637,0.57866 0.250949,0.661029 -0.88,0.08886 z m 10.48,-0.04607 c 1.726933,-0.778565 1.343331,-1.338953 -1.328459,-1.940692 -0.875223,-0.197117 -1.647328,-0.565548 -1.715789,-0.818734 -0.08121,-0.300338 -0.03259,-0.338196 0.139886,-0.108921 0.1454,0.19328 0.891479,0.449398 1.657954,0.569153 1.510121,0.235941 3.246408,1.010628 3.246408,1.448464 0,0.496837 -0.91176,1.039577 -1.983242,1.180557 L 29.28,70.408636 Z M 23.36,46.496189 c -2.798904,-0.303352 -4.647454,-0.794177 -6.885563,-1.828246 l -2.414036,-1.115354 -1.154856,0.783706 c -0.63517,0.431038 -1.288227,0.783706 -1.451237,0.783706 -0.706644,0 -1.5565112,-0.758678 -3.2999269,-2.94585 -2.2771805,-2.856797 -2.8426164,-3.712381 -1.3569348,-2.053232 1.0064285,1.123938 1.2738564,1.247183 2.8368659,1.307377 1.3725628,0.05286 2.2863708,0.371196 4.4656888,1.555675 3.482521,1.892782 5.749742,2.668323 9.106468,3.11502 4.572141,0.608439 9.382287,-0.521307 14.241963,-3.344971 1.968688,-1.143886 2.823706,-1.453672 4.192318,-1.518939 0.958372,-0.0457 1.994392,-0.301743 2.34095,-0.578535 0.341934,-0.2731 -0.0716,0.366177 -0.918959,1.420614 -2.047416,2.547759 -2.509779,2.860301 -3.451092,2.332827 -0.402407,-0.225492 -0.846804,-0.589986 -0.987549,-0.809986 -0.336841,-0.526518 -1.207575,-0.50795 -1.993466,0.04251 -1.387519,0.971857 -4.932169,2.214911 -7.508668,2.633176 -2.667738,0.433076 -3.505009,0.465117 -5.761966,0.220503 z m -12.504219,-8.016188 -0.775781,-0.88 0.88,0.77578 c 0.484,0.42668 0.88,0.82268 0.88,0.88 0,0.250968 -0.259136,0.04671 -0.984219,-0.77578 z M 0.98526317,28.613334 c 0.0153548,-0.372782 0.0911809,-0.448608 0.19333333,-0.193333 0.092439,0.231 0.08107,0.507 -0.025263,0.613333 -0.1063334,0.106333 -0.18196496,-0.08267 -0.16807023,-0.42 z m 48.96000083,-0.32 c 0.01535,-0.372782 0.09118,-0.448608 0.193333,-0.193333 0.09244,0.231 0.08107,0.507 -0.02526,0.613333 -0.106333,0.106333 -0.181965,-0.08267 -0.16807,-0.42 z M 0.71424087,26.560001 c 0,-0.616 0.0658545,-0.868 0.14634331,-0.56 0.0804888,0.308 0.0804888,0.812 0,1.12 -0.0804888,0.308 -0.14634331,0.056 -0.14634331,-0.56 z M 50.240001,23.876504 c 0,-3.870491 -0.669545,-6.945287 -2.257012,-10.365029 -1.324107,-2.852409 -1.151217,-3.332608 0.223283,-0.620164 2.046309,4.038198 2.409825,5.539851 2.374086,9.807154 -0.01834,2.189653 -0.10242,4.050265 -0.18685,4.134695 -0.08443,0.08443 -0.153507,-1.246066 -0.153507,-2.956656 z M 4.8505264,25.600001 c 0,-0.44 0.072632,-0.62 0.1614035,-0.4 0.088772,0.22 0.088772,0.58 0,0.8 -0.088772,0.22 -0.1614035,0.04 -0.1614035,-0.4 z M 4.8623837,22.56 c 0.00652,-0.528 0.07824,-0.705259 0.1593734,-0.393909 0.081134,0.311349 0.075798,0.743349 -0.011857,0.96 C 4.9222444,23.342741 4.8558622,23.088001 4.8623837,22.56 Z M 0.76751397,19.770867 C 0.85151744,17.586898 1.0353586,16.944159 2.3593292,14.20562 3.1825931,12.502757 3.9266357,11.179969 4.0127573,11.266091 4.098879,11.352212 3.8190174,12.056574 3.3908428,12.831338 2.5010619,14.44136 1.330135,18.141947 0.93878538,20.580799 0.69529788,22.098188 0.6806593,22.028963 0.76751397,19.770867 Z M 9.6000001,10.439183 c 0,-0.06645 0.252,-0.31845 0.5599999,-0.5600005 C 10.667538,9.4811439 10.678856,9.4924624 10.280818,10 9.8627795,10.53304 9.6000001,10.702553 9.6000001,10.439183 Z M 39.680001,8.8000002 c -0.77729,-0.792 -1.341254,-1.44 -1.253254,-1.44 0.088,0 0.795964,0.648 1.573254,1.44 0.777289,0.792 1.341253,1.4399998 1.253253,1.4399998 -0.088,0 -0.795964,-0.6479998 -1.573253,-1.4399998 z M 12.32,7.6800002 c 0.318556,-0.352 0.651192,-0.64 0.739192,-0.64 0.088,0 -0.100636,0.288 -0.419192,0.64 -0.318555,0.352 -0.651192,0.64 -0.739192,0.64 -0.088,0 0.100637,-0.288 0.419192,-0.64 z M 25.203731,6.1736767 c 0.398052,-0.076542 0.974052,-0.073636 1.28,0.00646 C 26.789679,6.2602281 26.464,6.3228533 25.76,6.3193014 25.056,6.3157496 24.805679,6.2502185 25.203731,6.1736767 Z m 9.35627,-1.0536766 C 34.271587,4.933613 34.232118,4.8078445 34.461115,4.8049002 c 0.209613,-0.0027 0.470112,0.1390999 0.578886,0.3150999 0.245537,0.3972881 0.134759,0.3972881 -0.48,0 z M 23.126091,2.978243 c 0.311349,-0.081134 0.743349,-0.075798 0.96,0.011857 C 24.302741,3.0777557 24.048,3.144138 23.52,3.1376165 22.992,3.131095 22.814741,3.0593769 23.126091,2.978243 Z m 3.67764,-0.00457 c 0.398052,-0.076542 0.974052,-0.073636 1.28,0.00646 C 28.389679,3.060228 28.064,3.1228532 27.36,3.1193014 26.656,3.1157496 26.405679,3.0502184 26.803731,2.9736766 Z M 18.181747,0.25025354 c 0.17065,-0.17065009 0.577568,-0.2536156 0.904263,-0.18436781 0.439942,0.09325218 0.359474,0.17372002 -0.310273,0.31027289 -0.583943,0.11905856 -0.794354,0.0744588 -0.59399,-0.12590508 z M 32.16,0.32000001 c -0.815431,-0.35040311 0.02587,-0.35040311 1.12,0 0.643115,0.20596112 0.674492,0.25804944 0.16,0.26561111 -0.352,0.005173 -0.928,-0.11435152 -1.28,-0.26561111 z"
         id="path14" />
      <path
         style="fill:#b4c6d7"
         d="M 20.72,69.89697 C 19.20081,69.072795 19.585922,68.603816 22.299975,67.972914 23.234989,67.755562 24,67.689781 24,67.826731 c 0,0.136951 -0.593436,0.328599 -1.318747,0.425883 -2.344499,0.314464 -2.468901,1.299863 -0.230901,1.828984 L 23.52,70.33449 l -0.96,0.01994 c -0.528,0.01097 -1.356,-0.19489 -1.84,-0.457464 z m 8.029648,0.184628 c 1.538156,-0.363659 1.965868,-0.889901 1.189191,-1.463139 -0.341639,-0.252152 -0.440172,-0.458458 -0.218963,-0.458458 0.609858,0 1.640124,0.620367 1.640124,0.987588 0,0.426928 -2.018247,1.261437 -2.949722,1.219657 -0.530531,-0.0238 -0.437707,-0.101927 0.33937,-0.285648 z m -1.70667,-2.236778 c -0.121712,-0.196934 0.201355,-0.239717 0.861115,-0.114035 1.414806,0.269515 1.536894,0.429216 0.328126,0.429216 -0.546946,0 -1.082105,-0.141831 -1.189241,-0.315181 z m 8.895251,-19.55459 c -0.36749,-0.36749 -21.469394,-0.620559 -22.395173,-0.268579 -0.788653,0.299845 -1.607495,-0.479169 -4.3954454,-4.18165 l -1.5662297,-2.08 1.588641,1.68 c 0.8737521,0.924 1.8118471,1.68 2.0846541,1.68 0.272808,0 1.026221,-0.359808 1.674252,-0.799574 l 1.178239,-0.799574 1.250604,0.638011 c 5.628224,2.871305 12.380955,3.214216 18.190441,0.923729 1.291516,-0.509202 2.655557,-1.141095 3.031202,-1.404207 0.832406,-0.583039 1.700541,-0.61632 2.044686,-0.07839 0.140745,0.22 0.591185,0.588267 1.000976,0.818371 0.839036,0.471132 1.12408,0.327599 2.72495,-1.372142 0.500514,-0.531426 0.147266,0.04177 -0.784994,1.273771 -2.631162,3.477129 -3.039983,3.862146 -3.603944,3.394099 -0.389458,-0.323221 -0.595135,-0.280052 -1.107675,0.232489 -0.369349,0.369349 -0.747489,0.511336 -0.915184,0.343641 z m 7.261772,-6.491047 c 0,-0.06645 0.252,-0.31845 0.56,-0.56 0.507537,-0.398038 0.518856,-0.38672 0.120817,0.120818 -0.418038,0.533039 -0.680817,0.702553 -0.680817,0.439182 z M 6.9991824,41.040001 c -0.3980386,-0.507538 -0.3867201,-0.518856 0.1208177,-0.120818 0.308,0.24155 0.56,0.49355 0.56,0.56 0,0.263371 -0.2627794,0.09386 -0.6808177,-0.439182 z m 32.9874446,-2.72 c 0.784645,-0.836 1.468645,-1.52 1.52,-1.52 0.240284,0 -0.01377,0.287304 -1.426626,1.613373 l -1.52,1.426627 z m -17.164203,-1.2 c 0,-1.144 0.05808,-1.612 0.129063,-1.04 0.07098,0.572 0.07098,1.508 0,2.08 -0.07099,0.572 -0.129063,0.104 -0.129063,-1.04 z m 5.411817,-0.32 c 0,-0.616 0.06585,-0.868 0.146344,-0.56 0.08049,0.308 0.08049,0.812 0,1.12 -0.08049,0.308 -0.146344,0.056 -0.146344,-0.56 z m -18.9950586,-0.24 c -0.3980386,-0.507538 -0.3867201,-0.518857 0.1208177,-0.120818 0.5330394,0.418038 0.7025529,0.680818 0.4391824,0.680818 -0.06645,0 -0.3184498,-0.252 -0.5600001,-0.56 z m 9.7876596,-2.34129 c -0.11601,-0.18771 -0.142298,-0.40992 -0.05842,-0.493801 0.08388,-0.08388 0.237781,0.0697 0.342,0.34129 0.216379,0.563874 0.03195,0.663058 -0.283583,0.152511 z M 5.1452632,27.333334 c 0.015355,-0.372782 0.091181,-0.448608 0.1933334,-0.193333 0.092439,0.231 0.08107,0.507 -0.025263,0.613333 -0.1063333,0.106333 -0.1819649,-0.08267 -0.1680702,-0.42 z m 45.1200008,0 c 0.01535,-0.372782 0.09118,-0.448608 0.193333,-0.193333 0.09244,0.231 0.08107,0.507 -0.02526,0.613333 -0.106333,0.106333 -0.181965,-0.08267 -0.16807,-0.42 z m -4.454737,-0.773333 c 0,-0.44 0.07263,-0.62 0.161404,-0.4 0.08877,0.22 0.08877,0.58 0,0.8 -0.08877,0.22 -0.161404,0.04 -0.161404,-0.4 z m -40.9481433,-2.4 c 0.00652,-0.528 0.07824,-0.70526 0.1593734,-0.39391 0.081134,0.311349 0.075798,0.743349 -0.011857,0.96 -0.087655,0.21665 -0.1540376,-0.03809 -0.1475161,-0.56609 z M 15.705263,21.253334 c 0.01535,-0.372782 0.09118,-0.448608 0.193334,-0.193334 0.09244,0.231 0.08107,0.507 -0.02526,0.613334 -0.106334,0.106333 -0.181965,-0.08267 -0.168071,-0.42 z m 30.080001,0 c 0.01535,-0.372782 0.09118,-0.448608 0.193333,-0.193334 0.09244,0.231 0.08107,0.507 -0.02526,0.613334 -0.106333,0.106333 -0.181965,-0.08267 -0.16807,-0.42 z m -10.56,-0.32 c 0.01535,-0.372782 0.09118,-0.448608 0.193333,-0.193334 0.09244,0.231 0.08107,0.507 -0.02526,0.613334 -0.106333,0.106333 -0.181965,-0.08267 -0.16807,-0.42 z m 0.32,-1.28 c 0.01535,-0.372782 0.09118,-0.448608 0.193333,-0.193334 0.09244,0.231 0.08107,0.507 -0.02526,0.613334 -0.106333,0.106333 -0.181965,-0.08267 -0.16807,-0.42 z M 20.64,19.617264 C 26.952343,19.389262 33.207396,19.380575 33.071198,19.6 c -0.08193,0.132 -3.48847,0.21069 -7.570083,0.174866 C 21.419502,19.739042 19.232,19.668121 20.64,19.617264 Z m -5.574737,-0.92393 c 0.01535,-0.372782 0.09118,-0.448608 0.193334,-0.193334 0.09244,0.231 0.08107,0.507 -0.02526,0.613334 -0.106334,0.106333 -0.181965,-0.08267 -0.168071,-0.42 z m 2.24,-0.96 c 0.01535,-0.372782 0.09118,-0.448608 0.193334,-0.193334 0.09244,0.231 0.08107,0.507 -0.02526,0.613334 -0.106334,0.106333 -0.181965,-0.08267 -0.168071,-0.42 z M 33.970527,15.68 c 0,-0.44 0.07263,-0.62 0.161403,-0.4 0.08877,0.22 0.08877,0.58 0,0.8 -0.08877,0.22 -0.161403,0.04 -0.161403,-0.4 z M 13.785263,13.253334 c 0.01535,-0.372782 0.09118,-0.448608 0.193334,-0.193334 0.09244,0.231 0.08107,0.507 -0.02526,0.613334 -0.106334,0.106333 -0.181965,-0.08267 -0.168071,-0.42 z m 10.304393,0.271059 c 0.84131,-0.06614 2.13731,-0.06534 2.88,0.0018 0.742689,0.06711 0.05434,0.121224 -1.529656,0.120249 -1.584,-9.76e-4 -2.191655,-0.05588 -1.350344,-0.122022 z m 12.569183,-0.57457 C 36.3172,12.691421 36.191568,12.48 36.379657,12.48 c 0.188088,0 0.521243,0.216 0.740344,0.48 0.498305,0.600421 0.341548,0.596962 -0.461162,-0.01018 z M 33.54,11.941404 c 0.231001,-0.09244 0.507001,-0.08107 0.613334,0.02526 0.106333,0.106333 -0.08267,0.181965 -0.42,0.16807 -0.372782,-0.01535 -0.448608,-0.09118 -0.193334,-0.193333 z m -15.04,-0.32 c 0.231,-0.09244 0.507,-0.08107 0.613334,0.02526 0.106333,0.106333 -0.08267,0.181965 -0.42,0.16807 C 18.320552,11.799382 18.244726,11.723556 18.5,11.621404 Z m 13.44,0 c 0.231,-0.09244 0.507,-0.08107 0.613334,0.02526 0.106333,0.106333 -0.08267,0.181965 -0.42,0.16807 C 31.760552,11.799382 31.684726,11.723556 31.94,11.621404 Z M 9.4400001,10.88 c 0.3185557,-0.352 0.6511919,-0.64 0.7391919,-0.64 0.088,0 -0.100636,0.288 -0.4191919,0.64 -0.3185556,0.352 -0.651192,0.64 -0.739192,0.64 -0.088,0 0.1006364,-0.288 0.419192,-0.64 z M 20.56,11.299416 c 0.308,-0.08049 0.812,-0.08049 1.12,0 0.308,0.08049 0.056,0.146343 -0.56,0.146343 -0.616,0 -0.868,-0.06585 -0.56,-0.146343 z m 8.966091,-0.0012 c 0.311349,-0.08113 0.743349,-0.0758 0.96,0.01186 0.21665,0.08766 -0.03809,0.154038 -0.566091,0.147517 -0.528,-0.0065 -0.705259,-0.07824 -0.393909,-0.159374 z m -4.32236,-0.324566 c 0.398052,-0.07654 0.974052,-0.07364 1.28,0.0065 0.305948,0.08009 -0.01973,0.142718 -0.723731,0.139167 -0.704,-0.0036 -0.954321,-0.06908 -0.556269,-0.145625 z M 40.935781,10.32 l -0.77578,-0.8799998 0.88,0.7757808 C 41.862493,10.940864 42.066749,11.2 41.815781,11.2 c -0.05732,0 -0.453321,-0.396 -0.88,-0.88 z M 11.04,8.9600002 c 0.318556,-0.352 0.651192,-0.64 0.739192,-0.64 0.088,0 -0.100636,0.288 -0.419192,0.64 -0.318555,0.352 -0.651192,0.64 -0.739192,0.64 -0.088,0 0.100637,-0.288 0.419192,-0.64 z M 38.240001,7.7795341 c -0.88,-0.8094826 -1.168,-1.1771082 -0.64,-0.8169457 0.899207,0.6133728 2.674831,2.3346548 2.37578,2.303072 -0.07468,-0.00789 -0.85578,-0.6766437 -1.73578,-1.4861263 z M 12.700868,7.6448231 c 0.385478,-0.4206526 1.177478,-1.0392184 1.76,-1.3745907 C 15.793003,5.5032902 15.613966,5.6986119 13.6,7.209398 12.657589,7.9163528 12.288052,8.0953093 12.700868,7.6448231 Z m 6.748815,-0.9820037 c 0.46837,-0.4673474 4.102212,-1.2228193 5.881798,-1.2228193 2.12198,0 4.76454,0.5070589 5.518822,1.0589608 0.409598,0.2996992 -0.77624,0.3823877 -5.555086,0.387356 -3.341717,0.00347 -5.972208,-0.0971 -5.845534,-0.2234975 z m 7.034048,-0.4826849 c -0.305948,-0.080094 -0.881948,-0.083 -1.28,-0.00646 C 24.805679,6.2502185 25.056,6.3157496 25.76,6.3193014 c 0.704,0.00355 1.029679,-0.059073 0.723731,-0.1391669 z M 15.914667,5.4002921 c 0.217067,-0.2186939 0.475277,-0.3170149 0.573801,-0.218491 0.09852,0.098524 -0.07908,0.2774552 -0.394667,0.3976253 -0.456063,0.1736591 -0.49282,0.1369027 -0.179134,-0.1791343 z M 32.64,4.4800001 C 32.376,4.3093902 32.304,4.1698003 32.48,4.1698003 c 0.176,0 0.536,0.1395899 0.8,0.3101998 0.264,0.1706099 0.336001,0.3101998 0.16,0.3101998 -0.176,0 -0.536,-0.1395899 -0.8,-0.3101998 z M 20.42,3.6214036 c 0.231,-0.092439 0.507,-0.08107 0.613334,0.025263 0.106333,0.1063334 -0.08267,0.181965 -0.42,0.1680702 C 20.240552,3.7993821 20.164726,3.723556 20.42,3.6214036 Z M 22,3.3080702 c 0.22,-0.088772 0.58,-0.088772 0.8,0 0.22,0.088772 0.04,0.1614036 -0.4,0.1614036 -0.44,0 -0.62,-0.072632 -0.4,-0.1614036 z m 6.4,0 c 0.22,-0.088772 0.58,-0.088772 0.8,0 0.22,0.088772 0.04,0.1614036 -0.4,0.1614036 -0.44,0 -0.62,-0.072632 -0.4,-0.1614036 z M 24.72,2.9794159 c 0.308,-0.080489 0.812,-0.080489 1.12,0 0.308,0.080489 0.056,0.1463433 -0.56,0.1463433 -0.616,0 -0.868,-0.065854 -0.56,-0.1463433 z"
         id="path13" />
      <path
         style="fill:#a7b4c9"
         d="m 22.450352,70.081598 c -2.230834,-0.527426 -2.114603,-1.514386 0.215145,-1.82687 0.716645,-0.09612 1.359947,-0.336759 1.42956,-0.534747 0.06961,-0.197989 0.112484,-0.153076 0.09527,0.09981 -0.01722,0.252881 -0.508865,0.583534 -1.092552,0.734782 -1.544369,0.400186 -1.090672,1.00038 1.011454,1.338048 2.006867,0.322366 4.72392,-0.04966 4.927637,-0.674708 0.07256,-0.222631 -0.431778,-0.531892 -1.208466,-0.741032 -1.73205,-0.466393 -1.51914,-0.63118 0.427246,-0.330678 2.658633,0.410466 2.828356,1.374526 0.343482,1.951044 -1.482301,0.34391 -4.6622,0.335819 -6.148773,-0.01565 z M 16.16,53.329186 c -0.176,-0.249951 -1.770485,-2.30727 -3.543299,-4.57182 -1.772815,-2.264551 -3.6224438,-4.693365 -4.1102866,-5.397365 l -0.886987,-1.28 0.9102864,1.111795 c 3.0074162,3.673165 4.2381232,4.953151 4.6322892,4.817771 0.822066,-0.282346 22.472851,-0.02271 22.768601,0.273038 0.177862,0.177861 0.541249,0.04554 0.922809,-0.336016 0.518317,-0.518317 0.715447,-0.558009 1.116851,-0.224873 0.537882,0.446402 1.187448,-0.163242 3.709715,-3.481715 0.702303,-0.924 1.340561,-1.68 1.418352,-1.68 0.20389,0 -1.379362,2.149844 -4.948943,6.72 -2.993698,3.83285 -3.177431,4.003564 -4.39682,4.085284 -2.515829,0.168605 -3.28024,0.176075 -9.432568,0.09218 -3.432,-0.0468 -6.6,0.0074 -7.04,0.120543 -0.522583,0.134327 -0.910967,0.04804 -1.12,-0.248821 z m 7.926091,-9.070942 c 0.311349,-0.08113 0.743349,-0.0758 0.96,0.01186 0.21665,0.08766 -0.03809,0.154038 -0.566091,0.147516 -0.528,-0.0065 -0.705259,-0.07824 -0.393909,-0.159373 z m 2.24,0 c 0.311349,-0.08113 0.743349,-0.0758 0.96,0.01186 0.21665,0.08766 -0.03809,0.154038 -0.566091,0.147516 -0.528,-0.0065 -0.705259,-0.07824 -0.393909,-0.159373 z m 16.87391,-2.139061 c 0,-0.06645 0.252,-0.31845 0.56,-0.56 0.507537,-0.398038 0.518856,-0.38672 0.120817,0.120818 -0.418038,0.533039 -0.680817,0.702553 -0.680817,0.439182 z M 6.9991824,41.360001 c -0.3980386,-0.507538 -0.3867201,-0.518856 0.1208177,-0.120818 0.308,0.24155 0.56,0.49355 0.56,0.56 0,0.263371 -0.2627794,0.09386 -0.6808177,-0.439182 z M 44.160001,40.839183 c 0,-0.06645 0.252,-0.31845 0.56,-0.56 0.507537,-0.398038 0.518856,-0.38672 0.120817,0.120818 -0.418038,0.533039 -0.680817,0.702553 -0.680817,0.439182 z M 5.1942594,38.800001 c -0.8284533,-1.196478 -1.097749,-1.68 -0.9356684,-1.68 0.074999,0 0.5175406,0.576 0.9834258,1.28 0.9468519,1.43079 0.9055423,1.776784 -0.047757,0.4 z m 5.8306836,-0.48 -1.2649429,-1.36 L 11.12,38.224944 c 0.748,0.695719 1.36,1.307719 1.36,1.36 0,0.242105 -0.278672,-1.57e-4 -1.455057,-1.264943 z M 24.4,39.446891 c 0.66,-0.06904 1.74,-0.06904 2.4,0 0.66,0.06904 0.12,0.125524 -1.2,0.125524 -1.32,0 -1.86,-0.05649 -1.2,-0.125524 z m 3.810527,-1.04689 c 0,-0.44 0.07263,-0.62 0.161403,-0.4 0.08877,0.22 0.08877,0.58 0,0.8 -0.08877,0.22 -0.161403,0.04 -0.161403,-0.4 z m 18.733897,-0.532495 c 0.122061,-0.318085 0.07472,-0.452387 -0.117569,-0.333545 -0.177048,0.109422 0.352838,-1.146418 1.177525,-2.790757 0.824687,-1.644338 1.694196,-3.86762 1.932241,-4.940628 0.238046,-1.073007 0.532841,-1.78907 0.6551,-1.59125 0.334811,0.541734 -0.878458,4.569792 -2.273694,7.548675 -0.680081,1.452 -1.313332,2.64 -1.407225,2.64 -0.09389,0 -0.07876,-0.239623 0.03362,-0.532495 z m 0.537675,-0.924125 c 0.109279,-0.284776 0.05563,-0.413223 -0.125764,-0.301115 -0.173984,0.107528 -0.316334,0.331007 -0.316334,0.49662 0,0.460299 0.229365,0.358868 0.442098,-0.195505 z M 2.3528841,34.906667 C 1.3479623,32.639307 0.36697888,29.10122 0.57562992,28.496691 c 0.0879503,-0.25482 0.35745411,0.32118 0.59889728,1.28 0.2414431,0.95882 0.9937949,2.90731 1.6718928,4.329976 0.9144028,1.918441 1.1121894,2.586667 0.765621,2.586667 -0.2593654,0 -0.8196294,-0.79498 -1.2591569,-1.786667 z m 0.8861791,0.717335 c -0.3772301,-0.64871 -0.4683239,-0.441074 -0.1595308,0.363628 0.1097428,0.285985 0.2669424,0.452563 0.3493324,0.370173 0.08239,-0.08239 -0.00302,-0.412601 -0.1898016,-0.733801 z M 20.246091,34.658244 c 0.311349,-0.08113 0.743349,-0.0758 0.96,0.01186 0.21665,0.08765 -0.03809,0.154038 -0.566091,0.147516 -0.528,-0.0065 -0.705259,-0.07824 -0.393909,-0.159373 z m 9.593909,0.0012 c 0.308,-0.08049 0.812,-0.08049 1.12,0 0.308,0.08049 0.056,0.146343 -0.56,0.146343 -0.616,0 -0.868,-0.06585 -0.56,-0.146343 z m 15.625264,-7.006083 c 0.01535,-0.372782 0.09118,-0.448608 0.193333,-0.193333 0.09244,0.231 0.08107,0.507 -0.02526,0.613333 -0.106333,0.106333 -0.181965,-0.08267 -0.16807,-0.42 z M 5.1705264,26.240001 c 0,-0.44 0.072632,-0.62 0.1614035,-0.4 0.088772,0.22 0.088772,0.58 0,0.8 -0.088772,0.22 -0.1614035,0.04 -0.1614035,-0.4 z m 40.6944796,-2.4 c 0.0014,-1.232001 0.05926,-1.696789 0.12853,-1.032863 0.06927,0.663925 0.06811,1.671925 -0.0026,2.24 -0.07069,0.568074 -0.127369,0.02486 -0.125949,-1.207137 z m 5.102151,0.48 c 0,-0.792 0.0624,-1.116 0.138678,-0.72 0.07627,0.396 0.07627,1.044 0,1.44 -0.07627,0.396 -0.138678,0.072 -0.138678,-0.72 z M 5.1823837,21.6 c 0.00652,-0.528 0.07824,-0.705259 0.1593734,-0.393909 0.081134,0.311349 0.075798,0.743349 -0.011857,0.96 C 5.2422444,22.382741 5.1758622,22.128 5.1823837,21.6 Z M 45.465264,19.973334 c 0.01535,-0.372782 0.09118,-0.448608 0.193333,-0.193334 0.09244,0.231 0.08107,0.507 -0.02526,0.613334 -0.106333,0.106333 -0.181965,-0.08267 -0.16807,-0.42 z M 16.96,15.538886 c 0,-0.253613 0.130571,-0.541812 0.290157,-0.640442 0.159587,-0.09863 0.214792,0.108872 0.122678,0.461115 C 17.177439,16.106755 16.96,16.201206 16.96,15.538886 Z m 4.42,-1.677482 c 0.231,-0.09244 0.507,-0.08107 0.613334,0.02526 0.106333,0.106333 -0.08267,0.181965 -0.42,0.16807 -0.372782,-0.01535 -0.448608,-0.09118 -0.193334,-0.193333 z m 8,0 c 0.231,-0.09244 0.507,-0.08107 0.613334,0.02526 0.106333,0.106333 -0.08267,0.181965 -0.42,0.16807 C 29.200552,14.039382 29.124726,13.963556 29.38,13.861404 Z M 8.9600001,11.719183 c 0,-0.06645 0.252,-0.31845 0.56,-0.56 C 10.027538,10.761144 10.038856,10.772462 9.6408178,11.28 9.2227795,11.81304 8.9600001,11.982554 8.9600001,11.719183 Z M 30.98,11.301404 c 0.231,-0.09244 0.507,-0.08107 0.613334,0.02526 0.106333,0.106333 -0.08267,0.181965 -0.42,0.16807 C 30.800552,11.479382 30.724726,11.403556 30.98,11.301404 Z M 41.239183,10.96 c -0.398039,-0.507538 -0.38672,-0.518856 0.120818,-0.120817 0.308,0.24155 0.56,0.49355 0.56,0.56 0,0.263371 -0.26278,0.09386 -0.680818,-0.439183 z M 22.64,10.974166 c 0.396,-0.07627 1.044,-0.07627 1.44,0 0.396,0.07627 0.072,0.138678 -0.72,0.138678 -0.792,0 -1.116,-0.06241 -0.72,-0.138678 z m 4.64,0.0053 c 0.308,-0.08049 0.812,-0.08049 1.12,0 0.308,0.08049 0.056,0.146343 -0.56,0.146343 -0.616,0 -0.868,-0.06585 -0.56,-0.146343 z M 10.24,10.139869 c 0,-0.05507 0.468,-0.5230716 1.04,-1.0399996 l 1.04,-0.9398692 -0.939869,1.04 C 10.504041,10.169426 10.24,10.387089 10.24,10.139869 Z m 27.969597,-2.2198688 -0.609596,-0.72 0.72,0.609596 c 0.676622,0.5728698 0.865677,0.830404 0.609596,0.830404 -0.06072,0 -0.384723,-0.324 -0.72,-0.72 z M 12.8,7.8791825 c 0,-0.06645 0.252,-0.3184498 0.56,-0.56 0.507538,-0.3980387 0.518857,-0.3867201 0.120818,0.1208177 C 13.06278,7.9730395 12.8,8.1425534 12.8,7.8791825 Z m 5.44,-1.0170377 c 0.792,-0.4142736 1.656,-0.7506041 1.92,-0.7474011 0.264,0.0032 0.156,0.1360558 -0.24,0.2952283 -0.396,0.1591726 -0.72,0.3329091 -0.72,0.3860811 0,0.053172 2.738491,0.093812 6.085534,0.090312 4.947796,-0.00517 5.983325,-0.081148 5.538839,-0.4063648 -0.319757,-0.233956 -0.38318,-0.4 -0.152786,-0.4 0.469612,0 2.928414,1.2223468 2.928414,1.4558053 0,0.089539 -3.780001,0.1440703 -8.400001,0.121181 L 16.8,7.6153695 Z M 36.943537,7.0555364 C 36.776082,6.8880813 35.847282,6.3146899 34.879537,5.7813333 33.911792,5.2479766 33.264,4.8103366 33.44,4.8087999 c 0.439695,-0.00384 3.586551,1.8211109 3.835881,2.2245345 0.253985,0.410957 0.06878,0.4233293 -0.332344,0.022202 z M 15.04,6.2296912 c 0,-0.2803213 3.873426,-2.0110477 4.96,-2.2162301 0.528,-0.099704 0.238317,0.088045 -0.643741,0.4172209 -0.882057,0.329176 -2.214057,0.9098621 -2.96,1.2904136 C 15.650317,6.1016471 15.04,6.3305151 15.04,6.2296912 Z m 7.3,-0.6882876 c 0.231,-0.092439 0.507,-0.08107 0.613334,0.025263 0.106333,0.1063333 -0.08267,0.1819649 -0.42,0.1680702 C 22.160552,5.7193821 22.084726,5.6435561 22.34,5.5414036 Z m 5.76,0 c 0.231,-0.092439 0.507,-0.08107 0.613334,0.025263 0.106333,0.1063333 -0.08267,0.1819649 -0.42,0.1680702 C 27.920552,5.7193821 27.844726,5.6435561 28.1,5.5414036 Z m 2.46,-1.4188972 c -1.48252,-0.4647069 -1.630639,-0.5591639 -0.650058,-0.414551 0.698467,0.1030079 1.706467,0.3791109 2.24,0.6135622 1.357567,0.596559 0.675911,0.5112369 -1.589942,-0.1990112 z m -9.2,-0.4944361 c 0.22,-0.088772 0.58,-0.088772 0.8,0 0.22,0.088772 0.04,0.1614035 -0.4,0.1614035 -0.44,0 -0.62,-0.072632 -0.4,-0.1614035 z m 2.88,-0.3423758 c 0.748,-0.067371 1.972,-0.067371 2.72,0 0.748,0.067371 0.136,0.122493 -1.36,0.122493 -1.496,0 -2.108,-0.055122 -1.36,-0.122493 z"
         id="path12" />
      <path
         style="fill:#939cb5"
         d="m 23.2264,69.802141 c -1.317735,-0.285311 -1.422118,-0.962996 -0.186396,-1.21014 1.192464,-0.238493 1.466646,-0.739513 0.966984,-1.766995 -0.34557,-0.710614 -0.339322,-0.716331 0.135359,-0.123843 0.641813,0.801098 0.652728,2.098838 0.01765,2.098838 -0.633692,0 -0.615941,0.519362 0.02617,0.765764 1.133476,0.434956 3.333828,0.118152 3.333828,-0.48 0,-0.15717 -0.207501,-0.285764 -0.461114,-0.285764 -0.677088,0 -0.905041,-0.55476 -0.492043,-1.197465 0.331066,-0.515203 0.347112,-0.51615 0.190711,-0.01126 -0.132241,0.426896 0.119667,0.629478 1.116536,0.897907 3.188131,0.858474 -1.122506,2.076218 -4.64769,1.31296 z M 27.84,65.159184 c 0,-0.06645 0.252,-0.31845 0.56,-0.56 0.507538,-0.398039 0.518857,-0.38672 0.120818,0.120817 C 28.10278,65.253041 27.84,65.422555 27.84,65.159184 Z m -5.76,-1.159183 c -0.375969,-0.528 -0.61158,-0.96 -0.52358,-0.96 0.088,0 0.467611,0.432 0.84358,0.96 0.37597,0.528 0.611581,0.96 0.523581,0.96 -0.088,0 -0.467612,-0.432 -0.843581,-0.96 z m 8.64,-2.88 c 0.37597,-0.528 0.755581,-0.96 0.843581,-0.96 0.088,0 -0.147611,0.432 -0.523581,0.96 -0.375969,0.528 -0.75558,0.96 -0.84358,0.96 -0.088,0 0.147611,-0.432 0.52358,-0.96 z m -6.071042,-0.31133 -3.351042,-0.16867 -2.536438,-3.125853 c -2.610345,-3.216934 -3.597915,-3.965178 -1.81695,-1.376635 0.55342,0.804369 0.940256,1.462488 0.859636,1.462488 -0.145927,0 -9.9661056,-13.948197 -12.3187408,-17.497056 -1.2894445,-1.945077 -2.606012,-4.376524 -2.6046005,-4.810196 4.524e-4,-0.139012 0.50382,0.581413 1.1185946,1.600944 1.3619954,2.258709 6.3272407,9.082353 9.8704187,13.564735 2.327306,2.944213 2.696859,3.28102 3.410164,3.107997 0.44,-0.106729 3.608,-0.155762 7.04,-0.108961 6.152328,0.0839 6.916739,0.07643 9.432568,-0.09218 1.219222,-0.08171 1.403642,-0.252962 4.399412,-4.085284 1.719765,-2.2 4.38711,-5.774839 5.927433,-7.944086 3.646657,-5.135612 3.853774,-5.379784 2.626089,-3.095914 -1.404927,2.613591 -8.011649,12.021611 -8.311822,11.836094 -0.132781,-0.08206 -0.221679,0.09777 -0.19755,0.399631 0.02413,0.30186 -0.154565,0.55231 -0.397098,0.556556 -0.242533,0.0042 -0.656212,0.367719 -0.919285,0.807719 l -0.478316,0.8 0.672169,-0.8 c 0.369693,-0.44 0.675372,-0.698899 0.679285,-0.575331 0.0091,0.287211 -2.870008,4.415331 -3.079416,4.415331 -0.08638,0 0.156466,-0.440291 0.539651,-0.978424 0.383184,-0.538133 0.633068,-1.042055 0.555296,-1.119827 -0.07777,-0.07777 -1.327457,1.361166 -2.777078,3.19764 -1.449621,1.836473 -2.805698,3.47254 -3.013506,3.635703 -0.617596,0.484915 -1.791571,0.571622 -5.328874,0.393578 z m -9.938553,-8.464187 c -0.741014,-0.981466 -1.407362,-1.784483 -1.480775,-1.784483 -0.07341,0 0.460791,0.875098 1.187118,1.944662 0.726327,1.069564 1.392676,1.872582 1.480774,1.784483 0.0881,-0.0881 -0.446104,-0.963197 -1.187117,-1.944662 z m 21.769596,0.417746 c 0,-0.176 -0.144,-0.231003 -0.32,-0.122229 -0.176,0.108774 -0.32,0.341771 -0.32,0.517771 0,0.176 0.144,0.231003 0.32,0.122229 0.176,-0.108774 0.32,-0.341771 0.32,-0.517771 z M 19.2,59.840001 c -0.375969,-0.528 -0.61158,-0.96 -0.52358,-0.96 0.088,0 0.467611,0.432 0.84358,0.96 0.375969,0.528 0.611581,0.96 0.523581,0.96 -0.088,0 -0.467612,-0.432 -0.843581,-0.96 z m 14.08,-2.4 c 0.544911,-0.792 1.062747,-1.44 1.150747,-1.44 0.088,0 -0.285836,0.648 -0.830746,1.44 -0.544911,0.792 -1.062747,1.44 -1.150747,1.44 -0.088,0 0.285836,-0.648 0.830746,-1.44 z m 6.386627,-19.12 c 1.326069,-1.412861 1.613374,-1.66691 1.613374,-1.426627 0,0.05136 -0.684,0.735356 -1.52,1.52 l -1.52,1.426627 z m -29.7874445,-1.44 C 9.4811438,36.372463 9.4924623,36.361144 10,36.759183 c 0.53304,0.418038 0.702553,0.680818 0.439182,0.680818 -0.06645,0 -0.318449,-0.252 -0.5599995,-0.56 z M 5.4652632,27.333334 c 0.015355,-0.372782 0.091181,-0.448608 0.1933334,-0.193333 0.092439,0.231 0.08107,0.507 -0.025263,0.613333 -0.1063333,0.106333 -0.1819649,-0.08267 -0.1680702,-0.42 z M 45.490527,26.560001 c 0,-0.44 0.07263,-0.62 0.161404,-0.4 0.08877,0.22 0.08877,0.58 0,0.8 -0.08877,0.22 -0.161404,0.04 -0.161404,-0.4 z M 0.11166095,24.608332 C 0.08507447,23.74575 0.19307448,23.04 0.35166096,23.04 c 0.34419207,0 0.37937252,2.242024 0.043439,2.768332 -0.12930496,0.202583 -0.25685249,-0.337417 -0.28343897,-1.2 z M 5.2158926,24.000001 c 0,-0.968001 0.059989,-1.364001 0.1333089,-0.88 0.07332,0.484 0.07332,1.276 0,1.76 -0.07332,0.484 -0.1333089,0.088 -0.1333089,-0.88 z M 45.490527,21.12 c 0,-0.44 0.07263,-0.62 0.161404,-0.4 0.08877,0.22 0.08877,0.58 0,0.8 -0.08877,0.22 -0.161404,0.04 -0.161404,-0.4 z M 5.4652632,20.293334 C 5.4806181,19.920552 5.5564441,19.844726 5.6585966,20.1 c 0.092439,0.231 0.08107,0.507 -0.025263,0.613334 -0.1063333,0.106333 -0.1819649,-0.08267 -0.1680702,-0.42 z m 39.6800008,-0.96 c 0.01535,-0.372782 0.09118,-0.448608 0.193333,-0.193334 0.09244,0.231 0.08107,0.507 -0.02526,0.613334 -0.106333,0.106333 -0.181965,-0.08267 -0.16807,-0.42 z M 22.34,13.861404 c 0.231,-0.09244 0.507,-0.08107 0.613334,0.02526 0.106333,0.106333 -0.08267,0.181965 -0.42,0.16807 -0.372782,-0.01535 -0.448608,-0.09118 -0.193334,-0.193333 z m 6.08,0 c 0.231,-0.09244 0.507,-0.08107 0.613334,0.02526 0.106333,0.106333 -0.08267,0.181965 -0.42,0.16807 C 28.240552,14.039382 28.164726,13.963556 28.42,13.861404 Z M 8.6400001,12.359183 c 0,-0.06645 0.252,-0.31845 0.56,-0.56 C 9.7075379,11.401144 9.7188564,11.412462 9.3208178,11.92 8.9027795,12.45304 8.6400001,12.622554 8.6400001,12.359183 Z M 41.559183,11.6 c -0.398039,-0.507538 -0.38672,-0.518856 0.120818,-0.120817 0.533039,0.418038 0.702553,0.680817 0.439182,0.680817 -0.06645,0 -0.31845,-0.252 -0.56,-0.56 z M 11.186627,9.5200002 c 0.784644,-0.836 1.468644,-1.52 1.52,-1.52 0.240283,0 -0.01377,0.2873045 -1.426627,1.6133735 L 9.7600001,11.04 Z m 28.633243,0 -0.939869,-1.04 1.04,0.9398692 c 0.572,0.5169281 1.04,0.9849276 1.04,1.0399996 0,0.24722 -0.264041,0.02956 -1.140131,-0.9398688 z m -2.100687,-1.76 c -0.398039,-0.5075378 -0.38672,-0.5188563 0.120818,-0.1208177 0.533039,0.4180383 0.702553,0.6808177 0.439182,0.6808177 -0.06645,0 -0.31845,-0.252 -0.56,-0.56 z M 13.12,7.8791825 c 0,-0.06645 0.252,-0.3184498 0.56,-0.56 0.507538,-0.3980387 0.518857,-0.3867201 0.120818,0.1208177 C 13.38278,7.9730395 13.12,8.1425534 13.12,7.8791825 Z m 6.4,-0.1991823 c 0,-0.176 0.224499,-0.32 0.498886,-0.32 0.274387,0 0.409888,0.144 0.301114,0.32 -0.108774,0.176 -0.333272,0.32 -0.498885,0.32 -0.165613,0 -0.301115,-0.144 -0.301115,-0.32 z M 32.4,7.779416 c 0.308,-0.080489 0.812,-0.080489 1.12,0 0.308001,0.080489 0.056,0.1463433 -0.56,0.1463433 -0.616,0 -0.868,-0.065855 -0.56,-0.1463433 z m -18,-0.8768982 c 0,-0.088 0.288,-0.314133 0.64,-0.5025177 0.352,-0.1883846 0.64,-0.2705176 0.64,-0.1825176 0,0.088 -0.288,0.314133 -0.64,0.5025176 C 14.688,6.9083848 14.4,6.9905178 14.4,6.9025178 Z M 35.120001,6.2169682 c -1.196302,-0.6490041 -1.123483,-0.9193132 0.08,-0.2969681 0.528,0.2730394 0.96,0.5647374 0.96,0.6482177 0,0.2059191 -0.03438,0.1943066 -1.04,-0.3512496 z M 32.96,5.1200001 C 32.696,4.9493902 32.624,4.8098003 32.8,4.8098003 c 0.176,0 0.536,0.1395899 0.800001,0.3101998 0.264,0.1706099 0.336,0.3101998 0.16,0.3101998 -0.176,0 -0.536001,-0.1395899 -0.800001,-0.3101998 z m -2.3,-0.8585965 c 0.231,-0.092439 0.507,-0.08107 0.613334,0.025263 0.106333,0.1063333 -0.08267,0.1819649 -0.42,0.1680701 C 30.480552,4.4393821 30.404726,4.363556 30.66,4.2614036 Z M 21.04,3.9480703 c 0.22,-0.088772 0.58,-0.088772 0.8,0 0.22,0.088772 0.04,0.1614035 -0.4,0.1614035 -0.44,0 -0.62,-0.072632 -0.4,-0.1614035 z m 8.34,-0.00667 c 0.231,-0.092439 0.507,-0.08107 0.613334,0.025263 0.106333,0.1063333 -0.08267,0.1819649 -0.42,0.1680701 C 29.200552,4.1193821 29.124726,4.043556 29.38,3.9414036 Z M 23.92,3.6040827 c 0.924,-0.064641 2.436,-0.064641 3.36,0 0.924,0.064641 0.168,0.1175287 -1.68,0.1175287 -1.848,0 -2.604,-0.052888 -1.68,-0.1175287 z"
         id="path11" />
      <path
         style="fill:#639fca"
         d="m 22.531783,39.241857 c -0.09247,-0.240979 -0.121555,-1.212979 -0.06463,-2.16 l 0.103505,-1.721856 0.15467,2.160671 c 0.155681,2.174798 0.115984,2.527813 -0.193548,1.721185 z m 5.564217,0.05414 c 0.2112,-0.2112 0.408207,-1.1112 0.437793,-2 0.04881,-1.466287 0.0657,-1.500241 0.182268,-0.366504 0.157463,1.531425 -0.120063,2.750504 -0.626157,2.750504 -0.287151,0 -0.285687,-0.09222 0.0061,-0.384 z M 18.746704,34.3542 c -0.293984,-0.766111 -0.06483,-0.824942 0.388122,-0.09965 0.214828,0.343996 0.260784,0.625447 0.102122,0.625447 -0.158661,0 -0.379271,-0.236611 -0.490244,-0.525801 z m -0.481441,-1.580866 c 0.01535,-0.372782 0.09118,-0.448608 0.193334,-0.193333 0.09244,0.231 0.08107,0.507 -0.02526,0.613333 -0.106334,0.106333 -0.181965,-0.08267 -0.168071,-0.42 z m 14.400001,-0.32 c 0.01535,-0.372782 0.09118,-0.448608 0.193333,-0.193333 0.09244,0.231 0.08107,0.507 -0.02526,0.613333 -0.106334,0.106333 -0.181965,-0.08267 -0.16807,-0.42 z M 16.377047,25.514265 c -0.911376,-3.642902 -1.643953,-6.80589 -1.62795,-7.028861 0.016,-0.222972 0.803748,2.618596 1.750544,6.314597 0.946797,3.696 1.679374,6.858987 1.62795,7.028861 -0.05142,0.169873 -0.839169,-2.671695 -1.750544,-6.314597 z m 16.591922,5.979069 c 0.01771,-0.579109 3.453486,-13.724164 3.481935,-13.321638 0.016,0.226433 -0.700706,3.320235 -1.592686,6.875116 -1.449827,5.778113 -1.917615,7.374306 -1.889249,6.446522 z M 17.96196,18.806023 C 17.592812,17.801408 17.237264,15.648561 17.577811,16.48 c 0.144175,0.352 0.391616,1.072 0.549869,1.6 l 0.287732,0.96 h 7.171384 7.171383 l 0.394666,-1.547088 c 0.217066,-0.850899 0.479976,-1.632399 0.584244,-1.736667 0.28597,-0.28597 -0.164925,1.889573 -0.581097,2.803755 l -0.364191,0.8 -7.281531,0.08602 -7.281531,0.08602 z m -3.536697,-1.392689 c 0.01536,-0.372782 0.09118,-0.448608 0.193334,-0.193334 0.09244,0.231 0.08107,0.507 -0.02526,0.613334 -0.106334,0.106333 -0.181965,-0.08267 -0.168071,-0.42 z m -0.32,-1.28 c 0.01535,-0.372782 0.09118,-0.448608 0.193334,-0.193334 0.09244,0.231 0.08107,0.507 -0.02526,0.613334 -0.106334,0.106333 -0.181965,-0.08267 -0.168071,-0.42 z m 22.720001,-0.32 c 0.01535,-0.372782 0.09118,-0.448608 0.193333,-0.193334 0.09244,0.231 0.08107,0.507 -0.02526,0.613334 -0.106333,0.106333 -0.181965,-0.08267 -0.16807,-0.42 z m 0.32,-1.28 c 0.01535,-0.372782 0.09118,-0.448608 0.193333,-0.193334 0.09244,0.231 0.08107,0.507 -0.02526,0.613334 -0.106333,0.106333 -0.181965,-0.08267 -0.16807,-0.42 z M 23.3,13.861404 c 0.231,-0.09244 0.507,-0.08107 0.613334,0.02526 0.106333,0.106333 -0.08267,0.181965 -0.42,0.16807 C 23.120552,14.039382 23.044726,13.963556 23.3,13.861404 Z m 4.16,0 c 0.231,-0.09244 0.507,-0.08107 0.613334,0.02526 0.106333,0.106333 -0.08267,0.181965 -0.42,0.16807 C 27.280552,14.039382 27.204726,13.963556 27.46,13.861404 Z M 13.44,13.138886 c 0,-0.165613 0.142351,-0.389092 0.316335,-0.49662 0.181395,-0.112109 0.235042,0.01634 0.125763,0.301114 C 13.669365,13.497754 13.44,13.599184 13.44,13.138886 Z m 2.18,-1.197482 c 0.231,-0.09244 0.507,-0.08107 0.613334,0.02526 0.106333,0.106333 -0.08267,0.181965 -0.42,0.16807 -0.372782,-0.01535 -0.448608,-0.09118 -0.193334,-0.193333 z m 19.520001,0 c 0.231,-0.09244 0.507,-0.08107 0.613333,0.02526 0.106333,0.106333 -0.08267,0.181965 -0.42,0.16807 -0.372782,-0.01535 -0.448608,-0.09118 -0.193333,-0.193333 z M 18.08,11.361845 c 4.002771,-1.178937 10.425003,-1.181989 14.88,-0.0071 1.286568,0.339307 1.415686,0.414469 0.48,0.279415 -5.729445,-0.82697 -9.120128,-0.952039 -12.48,-0.460338 -1.056,0.154541 -2.496,0.366091 -3.2,0.470113 -1.159681,0.171351 -1.129602,0.144832 0.32,-0.282119 z M 36.480001,9.4247504 C 34.848458,8.5560427 33.445857,8.428429 32.78566,9.088626 31.76028,10.114007 20.487911,10.129733 18.441078,9.1086379 17.161364,8.4702324 16.210546,8.5195802 14.672509,9.3042282 c -1.956739,0.9982538 -1.404278,0.063349 0.872809,-1.4770135 2.256041,-1.5261264 5.494007,-2.6138213 8.637268,-2.9014238 4.398933,-0.402494 10.00116,1.3315204 12.968226,4.0139559 1.603962,1.4500942 1.407935,1.5918232 -0.670811,0.4850036 z M 33.709264,7.5977245 C 33.626848,7.4644728 33.100548,7.1180413 32.539709,6.8278767 28.84761,4.9176752 22.164638,4.9576077 18.124667,6.9140102 17.031026,7.4436183 16.969258,7.5310319 17.586147,7.6761174 18.702439,7.938657 33.874506,7.8648882 33.709264,7.5977245 Z"
         id="path10" />
      <path
         style="fill:#688aae"
         d="m 24.08,69.548072 c -0.557176,-0.224826 -0.501219,-0.748071 0.08,-0.748071 0.276959,0 0.490687,-0.304561 0.505264,-0.72 0.02292,-0.653174 0.05509,-0.638323 0.346666,0.16 0.344861,0.944227 0.90807,1.190636 0.90807,0.397289 0,-0.460404 0.385719,-0.358537 1.590733,0.420111 0.0829,0.05357 -0.0611,0.231364 -0.32,0.3951 -0.493867,0.312331 -2.426402,0.371704 -3.110733,0.09557 z m 4.4,-5.548071 c 0.37597,-0.528 0.755581,-0.96 0.843581,-0.96 0.088,0 -0.147611,0.432 -0.523581,0.96 -0.375969,0.528 -0.75558,0.96 -0.84358,0.96 -0.088,0 0.147611,-0.432 0.52358,-0.96 z M 22.186783,62.653652 C 20.409873,60.43825 20.071353,60.250741 21.44,62.240001 c 0.544911,0.792 0.922642,1.44 0.839404,1.44 -0.148106,0 -3.064128,-4.17362 -7.154476,-10.24 -2.171557,-3.220628 -2.019255,-3.05629 2.848753,3.07389 1.701525,2.142694 3.225112,3.977036 3.38575,4.076316 0.160638,0.09928 2.073633,0.208424 4.251101,0.242544 l 3.959032,0.06204 1.087635,-1.247392 c 0.598199,-0.686066 2.248066,-2.759393 3.666371,-4.607393 3.862888,-5.033203 3.902633,-4.861557 0.148192,0.64 -1.861675,2.728 -3.546252,4.921722 -3.743504,4.874937 -0.197251,-0.04678 -0.315803,0.165983 -0.263448,0.472818 0.05235,0.306836 -0.08848,0.561114 -0.312966,0.565064 -0.224487,0.0039 -0.92092,0.655181 -1.54763,1.447181 -1.117267,1.411938 -1.176414,1.440266 -3.035072,1.453651 l -1.895598,0.01365 z M 22.98,43.941404 c 0.231,-0.09244 0.507,-0.08107 0.613334,0.02526 0.106333,0.106333 -0.08267,0.181965 -0.42,0.16807 -0.372782,-0.01535 -0.448608,-0.09118 -0.193334,-0.193334 z m 4.8,0 c 0.231,-0.09244 0.507,-0.08107 0.613334,0.02526 0.106333,0.106333 -0.08267,0.181965 -0.42,0.16807 -0.372782,-0.01535 -0.448608,-0.09118 -0.193334,-0.193334 z m -3.534269,-4.173317 c 0.575152,-0.07122 1.439152,-0.06975 1.92,0.0033 0.480848,0.07302 0.01027,0.131287 -1.045731,0.129491 -1.056,-0.0018 -1.449421,-0.06154 -0.874269,-0.132756 z M 11.339869,38.320001 10.4,37.280001 11.44,38.21987 c 0.969426,0.87609 1.187089,1.140131 0.939869,1.140131 -0.05507,0 -0.523072,-0.468 -1.04,-1.04 z m 29.300132,-1.320818 c 0,-0.06645 0.252,-0.31845 0.56,-0.56 0.507537,-0.398039 0.518856,-0.38672 0.120817,0.120818 -0.418038,0.533039 -0.680817,0.702553 -0.680817,0.439182 z M 28.48,35.538886 c 0,-0.165613 0.142351,-0.389092 0.316335,-0.49662 0.181395,-0.112108 0.235042,0.01634 0.125764,0.301115 C 28.709366,35.897754 28.48,35.999184 28.48,35.538886 Z M 6.1052632,29.253334 c 0.015355,-0.372782 0.091181,-0.448608 0.1933334,-0.193333 0.092439,0.231 0.08107,0.507 -0.025263,0.613333 -0.1063333,0.106333 -0.1819649,-0.08267 -0.1680702,-0.42 z m 38.7200008,-0.32 c 0.01535,-0.372782 0.09118,-0.448608 0.193333,-0.193333 0.09244,0.231 0.08107,0.507 -0.02526,0.613333 -0.106333,0.106333 -0.181965,-0.08267 -0.16807,-0.42 z m -39.0400008,-0.96 c 0.015355,-0.372782 0.091181,-0.448608 0.1933334,-0.193333 0.092439,0.231 0.08107,0.507 -0.025263,0.613333 -0.1063333,0.106333 -0.1819649,-0.08267 -0.1680702,-0.42 z M 45.182384,27.360001 c 0.0065,-0.528 0.07824,-0.70526 0.159374,-0.39391 0.08113,0.311349 0.0758,0.743349 -0.01186,0.96 -0.08766,0.21665 -0.154037,-0.03809 -0.147516,-0.56609 z m -39.6255101,-3.52 c 8.332e-4,-1.760001 0.05457,-2.439173 0.1194156,-1.509274 0.064845,0.9299 0.064164,2.3699 -0.00151,3.200001 -0.065679,0.8301 -0.1187339,0.06927 -0.1179007,-1.690727 z M 0.19953235,25.74763 C 0.08978956,25.461644 0.0123772,24.987434 0.02750488,24.693829 0.04263256,24.400223 0.18187099,24.584762 0.3369236,25.103915 0.6385752,26.113916 0.53189346,26.613749 0.19953235,25.74763 Z M 45.545006,23.840001 c 0.0014,-1.232001 0.05926,-1.696789 0.12853,-1.032863 0.06927,0.663925 0.06811,1.671925 -0.0026,2.24 -0.07069,0.568074 -0.127369,0.02486 -0.125949,-1.207137 z M 45.170527,20.48 c 0,-0.44 0.07263,-0.62 0.161404,-0.4 0.08877,0.22 0.08877,0.58 0,0.8 -0.08877,0.22 -0.161404,0.04 -0.161404,-0.4 z M 5.8105264,19.84 c 0,-0.44 0.072632,-0.62 0.1614035,-0.4 0.088772,0.22 0.088772,0.58 0,0.8 -0.088772,0.22 -0.1614035,0.04 -0.1614035,-0.4 z M 44.680001,18.52 c -0.266769,-1.333841 -0.0082,-1.592365 0.28,-0.28 0.121496,0.553171 0.154199,1.072467 0.07267,1.153993 -0.08153,0.08153 -0.240229,-0.31177 -0.352673,-0.873993 z M 6.1052632,18.373334 c 0.015355,-0.372782 0.091181,-0.448608 0.1933334,-0.193334 0.092439,0.231 0.08107,0.507 -0.025263,0.613334 -0.1063333,0.106333 -0.1819649,-0.08267 -0.1680702,-0.42 z M 44.039533,16.467629 c -0.308793,-0.804702 -0.217699,-1.012337 0.159531,-0.363628 0.186781,0.321201 0.272191,0.651411 0.189801,0.733801 -0.08239,0.08239 -0.239589,-0.08419 -0.349332,-0.370173 z M 6.7426788,16.48 c 0,-0.176 0.2057946,-0.68 0.4573213,-1.12 0.2515267,-0.44 0.4573213,-0.656 0.4573213,-0.48 0,0.176 -0.2057946,0.68 -0.4573213,1.12 -0.2515267,0.44 -0.4573213,0.656 -0.4573213,0.48 z M 17.305263,15.493334 c 0.01535,-0.372782 0.09118,-0.448608 0.193334,-0.193334 0.09244,0.231 0.08107,0.507 -0.02526,0.613334 -0.106334,0.106333 -0.181965,-0.08267 -0.168071,-0.42 z M 19.46,14.501404 c 0.231,-0.09244 0.507,-0.08107 0.613334,0.02526 0.106333,0.106333 -0.08267,0.181965 -0.42,0.16807 -0.372782,-0.01535 -0.448608,-0.09118 -0.193334,-0.193333 z m 11.84,0 c 0.231,-0.09244 0.507,-0.08107 0.613334,0.02526 0.106333,0.106333 -0.08267,0.181965 -0.42,0.16807 C 31.120552,14.679382 31.044726,14.603556 31.3,14.501404 Z M 8.0000001,13.76 c 0.1883847,-0.352 0.4145176,-0.64 0.5025176,-0.64 0.088,0 0.00587,0.288 -0.1825176,0.64 -0.1883847,0.352 -0.4145176,0.64 -0.5025176,0.64 -0.088,0 -0.00587,-0.288 0.1825176,-0.64 z m 5.4652629,0.133334 c 0.01535,-0.372782 0.09118,-0.448608 0.193334,-0.193334 0.09244,0.231 0.08107,0.507 -0.02526,0.613334 -0.106334,0.106333 -0.181965,-0.08267 -0.168071,-0.42 z M 21.04,14.18807 c 0.22,-0.08877 0.58,-0.08877 0.8,0 0.22,0.08877 0.04,0.161404 -0.4,0.161404 -0.44,0 -0.62,-0.07263 -0.4,-0.161404 z m 8.34,-0.0067 c 0.231,-0.09244 0.507,-0.08107 0.613334,0.02526 0.106333,0.106333 -0.08267,0.181965 -0.42,0.16807 -0.372782,-0.01535 -0.448608,-0.09118 -0.193334,-0.193333 z m -4.66,-0.330605 c 0.484,-0.07332 1.276,-0.07332 1.76,0 0.484,0.07332 0.088,0.133309 -0.88,0.133309 -0.968,0 -1.364,-0.05999 -0.88,-0.133309 z M 8.6400001,12.679183 c 0,-0.06645 0.252,-0.31845 0.56,-0.56 C 9.7075379,11.721144 9.7188564,11.732462 9.3208178,12.24 8.9027795,12.77304 8.6400001,12.942554 8.6400001,12.679183 Z M 41.559183,11.92 c -0.398039,-0.507538 -0.38672,-0.518856 0.120818,-0.120817 0.533039,0.418038 0.702553,0.680817 0.439182,0.680817 -0.06645,0 -0.31845,-0.252 -0.56,-0.56 z M 11.713106,9.3822836 C 12.816238,8.2945395 14.052071,7.2425901 14.4594,7.0446183 14.968178,6.7973408 14.899501,6.9127667 14.24,7.4133675 13.712,7.8141514 12.476168,8.8661008 11.493706,9.7510329 9.8451816,11.235907 9.862103,11.207467 11.713106,9.3822836 Z M 39.987567,10.067172 C 39.383678,9.4441164 38.13143,8.412181 37.204794,7.7739823 35.340537,6.4900196 34.971003,6.0446559 36.514392,6.9419086 c 1.010613,0.5875219 5.072631,4.2179984 4.748382,4.2439224 -0.09748,0.0078 -0.671318,-0.495603 -1.275207,-1.118659 z M 14.72,9.3130468 C 15.336,8.9576254 16.332,8.6607903 16.933334,8.6534132 18.366048,8.6358367 17.969381,9.0001016 16.243068,9.2872938 15.493381,9.4120129 14.592,9.6142284 14.24,9.7366617 13.888,9.8590949 14.104,9.6684682 14.72,9.3130468 Z m 21.600001,0.2869534 c -0.352,-0.1512596 -1.252,-0.2851385 -2,-0.2975087 C 33.572001,9.2901213 32.96,9.1360002 32.96,8.9600002 c 0,-0.4782476 1.68372,-0.3860673 3.000921,0.1642944 0.637494,0.2663619 1.15908,0.5543619 1.15908,0.64 0,0.1835068 0.01796,0.1871953 -0.8,-0.1642944 z M 13.44,9.1591825 c 0,-0.06645 0.252,-0.3184497 0.56,-0.56 0.507538,-0.3980386 0.518857,-0.3867201 0.120818,0.1208177 C 13.70278,9.2530396 13.44,9.4225535 13.44,9.1591825 Z m 1.92,-2.6438623 c 0,-0.2159465 3.53611,-1.8058774 3.685077,-1.6569105 0.06825,0.06825 -0.732973,0.5028884 -1.780494,0.9658639 C 16.217063,6.2872492 15.36,6.5982201 15.36,6.5153202 Z M 33.920001,5.7600001 c -0.288414,-0.186387 -0.327883,-0.3121556 -0.09889,-0.3150999 0.209613,-0.0027 0.470112,0.1390999 0.578886,0.3150999 0.245537,0.3972881 0.134759,0.3972881 -0.48,0 z m -2.240001,-0.8 C 31.064,4.7227795 30.776,4.5242297 31.04,4.5187783 c 0.264,-0.00545 0.912,0.1878978 1.44,0.429665 1.23586,0.5658905 0.661024,0.5741946 -0.8,0.011557 z m -11.68,-0.48 c 0.352,-0.1512596 0.928,-0.2707846 1.28,-0.2656111 0.514492,0.00756 0.483114,0.05965 -0.16,0.2656111 -1.094134,0.3504031 -1.935432,0.3504031 -1.12,0 z m 9.7,-0.2185965 c 0.231,-0.092439 0.507,-0.08107 0.613334,0.025263 0.106333,0.1063333 -0.08267,0.1819649 -0.42,0.1680701 C 29.520552,4.4393821 29.444726,4.363556 29.7,4.2614036 Z M 22.8,3.9307987 c 0.484,-0.07332 1.276,-0.07332 1.76,0 0.484,0.07332 0.088,0.1333088 -0.88,0.1333088 -0.968,0 -1.364,-0.059989 -0.88,-0.1333088 z m 3.84,0 c 0.484,-0.07332 1.276,-0.07332 1.76,0 0.484,0.07332 0.088,0.1333088 -0.88,0.1333088 -0.968,0 -1.364,-0.059989 -0.88,-0.1333088 z"
         id="path9" />
      <path
         style="fill:#2f84b9"
         d="M 22.293334,39.786668 C 22.176,39.669334 22.08,38.673334 22.08,37.573334 c 0,-1.1 -0.1476,-2.0732 -0.328,-2.162667 -0.1804,-0.08947 -0.1444,-0.12609 0.08,-0.08138 0.26122,0.05204 0.443266,0.758937 0.506026,1.964932 0.05391,1.036008 0.251547,2.068631 0.439183,2.294719 0.347872,0.41916 -0.0854,0.596214 -0.483875,0.197735 z M 28.416,39.616001 c 0.2112,-0.2112 0.384,-1.214134 0.384,-2.228741 0,-2.088903 0.394891,-2.507259 2.366629,-2.507259 1.313263,0 0.859994,1.231256 3.887511,-10.56 1.107147,-4.312001 2.024889,-7.612576 2.039427,-7.334613 0.02184,0.4176 -3.747517,15.815372 -4.321831,17.654613 -0.126811,0.406111 -0.513491,0.56 -1.407128,0.56 -2.041084,0 -2.244608,0.18933 -2.244608,2.088064 0,1.903396 -0.220098,2.711936 -0.738236,2.711936 -0.233998,0 -0.222666,-0.127098 0.03424,-0.384 z m -10.119515,-5.296 c -0.187638,-0.484 -1.288197,-4.768 -2.445686,-9.52 C 14.69331,20.048 13.614181,15.67682 13.452736,15.086266 13.29129,14.495712 13.258378,14.109659 13.379599,14.22837 13.50082,14.347081 14.752,19.006262 16.16,24.582105 l 2.56,10.137896 1.28,0.19459 1.28,0.19459 -1.321177,0.04541 c -1.164214,0.04001 -1.36171,-0.05914 -1.662338,-0.83459 z m -0.0048,-15.673917 c -0.163544,-0.311346 -0.396898,-1.167225 -0.518565,-1.901953 -0.265834,-1.605337 -0.04059,-1.775323 3.053101,-2.304121 3.965211,-0.677764 11.48147,-0.180328 12.48829,0.826492 0.213864,0.213864 0.175014,0.894483 -0.116841,2.046948 l -0.437239,1.72655 -7.085697,0.08608 c -6.503128,0.07901 -7.110143,0.03954 -7.383049,-0.48 z M 32.446522,18.48 c 0.698498,-2.625056 0.732204,-3.108874 0.227187,-3.260997 -3.388311,-1.020633 -10.771131,-1.018265 -14.161728,0.0045 -0.419937,0.126679 -0.492968,0.43533 -0.356783,1.507869 0.09418,0.741723 0.31342,1.528586 0.487201,1.748586 0.455212,0.57628 13.650782,0.57628 13.804123,0 z m 4.727867,-2.64 c -0.0052,-0.352 0.114352,-0.928 0.265612,-1.28 0.350403,-0.815432 0.350403,0.02587 0,1.12 -0.205962,0.643114 -0.25805,0.674492 -0.265612,0.16 z m 5.161512,-1.234152 c -0.361714,-0.613672 -3.796864,-3.356219 -4.744756,-3.788108 -1.072489,-0.488658 -1.009399,-1.0210235 0.08886,-0.749786 0.709525,0.175232 0.802511,0.138559 0.48,-0.1893097 -0.22,-0.2236543 -0.4,-0.5500921 -0.4,-0.7254175 0,-0.1753253 0.504,0.1697227 1.12,0.7667734 0.616,0.5970508 1.12,1.3402328 1.12,1.6515148 0,0.311282 0.324,0.738555 0.72,0.949496 0.396,0.210941 0.902431,0.612007 1.125403,0.891259 0.588358,0.736864 1.081895,1.62773 0.901756,1.62773 -0.08545,0 -0.270513,-0.195368 -0.411259,-0.434152 z m -4.550637,-1.352514 c 0.01535,-0.372782 0.09118,-0.448608 0.193333,-0.193334 0.09244,0.231 0.08107,0.507 -0.02526,0.613334 -0.106333,0.106333 -0.181965,-0.08267 -0.16807,-0.42 z M 13.354667,12.440292 c 0.217067,-0.218694 0.475277,-0.317015 0.573801,-0.218491 0.09852,0.09852 -0.07908,0.277456 -0.394667,0.397626 -0.456063,0.173659 -0.49282,0.136902 -0.179134,-0.179135 z M 32.8,11.303048 c -3.957669,-0.960661 -9.5916,-1.079367 -13.28,-0.279807 -1.32,0.286146 -2.832,0.584827 -3.36,0.663735 l -0.96,0.14347 1.04,-0.361514 c 1.365432,-0.474638 1.314896,-0.828361 -0.157817,-1.104643 L 14.884365,10.139577 16.299632,9.5385114 C 17.441373,9.053613 17.904795,9.0037286 18.69745,9.280402 c 1.678163,0.5857572 7.562443,0.754974 11.791841,0.3391033 3.41515,-0.335807 4.136014,-0.3257285 4.888124,0.068342 l 0.882211,0.4622371 -1.169813,0.219458 c -1.583228,0.297016 -1.470784,0.701129 0.350188,1.258541 2.331639,0.713731 0.926961,0.540788 -2.640001,-0.325035 z m -20.73668,0.01361 c -0.269411,-0.269411 0.671008,-2.0366528 1.083783,-2.0366528 0.181868,0 0.251789,0.1276286 0.155382,0.2836192 -0.09641,0.1559905 0.147094,0.3793433 0.541114,0.4963396 l 0.716401,0.21272 -0.782762,0.316566 c -0.430519,0.174111 -0.947768,0.453509 -1.149443,0.620884 -0.201674,0.167375 -0.455688,0.215311 -0.564475,0.106524 z M 33.024773,6.3840509 C 30.741313,5.3699614 26.711343,4.6977941 24.01741,4.8816936 22.617242,4.9772751 22.003967,4.9434115 22.56,4.801219 c 2.55742,-0.6540001 7.583541,-0.074019 10.48,1.2093232 0.836001,0.3704088 1.520001,0.7535677 1.520001,0.8514642 0,0.2189129 0.113503,0.2542495 -1.535228,-0.4779555 z M 20.74,5.2214036 c 0.231,-0.092439 0.507,-0.08107 0.613334,0.025263 0.106333,0.1063333 -0.08267,0.1819649 -0.42,0.1680702 C 20.560552,5.3993821 20.484726,5.3235561 20.74,5.2214036 Z"
         id="path8" />
      <path
         style="fill:#1889ca"
         d="M 16.105712,29.946571 C 15.021684,28.29287 14.398606,26.065814 14.416489,23.908817 l 0.01649,-1.988817 0.521013,1.280001 c 0.286557,0.704 0.603137,1.352 0.703511,1.44 0.250266,0.219413 0.446985,0.97787 0.477235,1.84 0.01389,0.396 0.141762,0.72 0.284149,0.72 0.142387,0 0.179754,0.128037 0.08304,0.284527 -0.09672,0.156489 -0.0451,0.984376 0.114699,1.839748 0.159801,0.855372 0.264737,1.581032 0.23319,1.612578 -0.03155,0.03155 -0.366392,-0.414081 -0.744101,-0.990283 z m 18.053764,0.2819 c -0.08055,-0.421379 -0.02603,-0.807167 0.121153,-0.857307 0.218957,-0.07459 0.509849,-1.432222 0.979439,-4.571163 0.02633,-0.176 0.311586,-0.597195 0.633902,-0.935989 0.572504,-0.601772 0.585767,-0.583306 0.574632,0.8 -0.01064,1.321838 -0.599105,4.25219 -1.098718,5.471247 -0.362256,0.883907 -1.049145,0.936803 -1.210408,0.09321 z M 18.581235,18.425586 C 17.946269,17.6605 18.295968,16.214344 19.222833,15.772303 21.343811,14.760765 28.19535,14.672666 31.52,15.614182 c 0.881203,0.24955 0.96,0.38817 0.96,1.688841 V 18.72 l -6.755643,0.08624 c -5.605725,0.07156 -6.821598,0.0068 -7.143122,-0.380649 z"
         id="path7" />
      <path
         style="fill:#55739c"
         d="m 24.999689,68.136303 c -0.188605,-0.541034 -1.279432,-2.413034 -2.424059,-4.16 -1.144628,-1.746966 -2.034896,-3.176302 -1.978374,-3.176302 0.05652,0 0.771809,0.834143 1.589527,1.853651 l 1.486761,1.853651 1.891923,-0.01365 1.891923,-0.01365 1.655739,-2.08 c 2.555153,-3.209876 2.538845,-3.025799 -0.0741,0.836384 -1.323332,1.956012 -2.595404,4.080012 -2.826827,4.720001 -0.513671,1.42053 -0.766931,1.45811 -1.212512,0.179917 z M 25.92,67.021116 c 0,-0.253613 -0.144,-0.461115 -0.32,-0.461115 -0.176,0 -0.32,0.296499 -0.32,0.658886 0,0.362387 0.144,0.569888 0.32,0.461114 0.176,-0.108774 0.32,-0.405272 0.32,-0.658885 z M 24.56,43.928514 c 0.572,-0.07098 1.508,-0.07098 2.08,0 0.572,0.07099 0.104,0.129063 -1.04,0.129063 -1.144,0 -1.612,-0.05808 -1.04,-0.129063 z m -2.88,-0.300443 c 0.22,-0.08877 0.58,-0.08877 0.8,0 0.22,0.08877 0.04,0.161404 -0.4,0.161404 -0.44,0 -0.62,-0.07263 -0.4,-0.161404 z m 7.04,0 c 0.22,-0.08877 0.58,-0.08877 0.8,0 0.22,0.08877 0.04,0.161404 -0.4,0.161404 -0.44,0 -0.62,-0.07263 -0.4,-0.161404 z m -8.3,-0.326667 c 0.231,-0.09244 0.507,-0.08107 0.613334,0.02526 0.106333,0.106333 -0.08267,0.181965 -0.42,0.16807 -0.372782,-0.01535 -0.448608,-0.09118 -0.193334,-0.193334 z m 9.92,0 c 0.231,-0.09244 0.507,-0.08107 0.613334,0.02526 0.106333,0.106333 -0.08267,0.181965 -0.42,0.16807 -0.372782,-0.01535 -0.448608,-0.09118 -0.193334,-0.193334 z m 2.3,-0.741403 c 0.264,-0.17061 0.624,-0.3102 0.8,-0.3102 0.176001,0 0.104,0.13959 -0.16,0.3102 -0.264,0.17061 -0.624,0.3102 -0.8,0.3102 -0.176,0 -0.104,-0.13959 0.16,-0.3102 z m 2.560001,-1.059385 c 0,-0.07456 0.595264,-0.529496 1.32281,-1.010963 0.727546,-0.481467 1.930066,-1.400602 2.672266,-2.042523 0.7422,-0.641921 0.592356,-0.447129 -0.332987,0.432871 -1.505946,1.432153 -3.662089,2.975104 -3.662089,2.620615 z m -23.50605,-3.180615 c -1.272585,-1.276 -2.4882764,-2.68 -2.7015363,-3.12 -0.3125603,-0.644878 -0.2503841,-0.613854 0.3206566,0.16 0.389621,0.528 1.6987567,1.932 2.9091897,3.12 1.210434,1.188 2.107344,2.16 1.993135,2.16 -0.11421,0 -1.24886,-1.044 -2.521445,-2.32 z M 41.364086,35.83181 c 1.300783,-1.742224 2.758864,-5.097848 3.276196,-7.539829 0.896261,-4.230656 0.384635,-8.720828 -1.415629,-12.423961 -1.100197,-2.263101 -1.518029,-2.821456 -2.504652,-3.347009 -0.396,-0.210941 -0.72,-0.638214 -0.72,-0.949496 0,-1.038344 -4.374732,-4.4815231 -7.235504,-5.694781 C 31.120338,5.1794435 27.437264,4.4796732 25.44,4.485107 20.062681,4.4997366 12.153859,8.5500355 12.01573,11.36 c -0.0087,0.176 -0.34283,0.336488 -0.742619,0.356639 -2.4835859,0.125186 -5.1931109,6.453311 -5.1931109,12.128566 0,3.182174 0.7729051,6.866304 1.9067889,9.0889 0.3664201,0.718243 0.5942184,1.305896 0.5062184,1.305896 -0.3422811,0 -1.4634618,-2.605828 -2.0828166,-4.840845 -0.4464392,-1.61103 -0.6487085,-3.300958 -0.6454608,-5.392724 0.0093,-5.990312 1.583095,-9.908169 5.610619,-13.967265 2.083328,-2.09966 3.101277,-2.8480073 5.282628,-3.8835368 3.509822,-1.6661806 5.188698,-2.0416871 9.101145,-2.0356108 2.561972,0.00398 3.750736,0.1735735 5.837629,0.8328227 3.201814,1.0114525 6.7906,3.3354277 9.052495,5.8620859 3.949749,4.412084 5.626152,11.219277 4.310962,17.505073 -0.528124,2.524107 -2.639545,7.070086 -3.722877,8.015513 -0.611944,0.534045 -0.593587,0.461096 0.126755,-0.503704 z M 21.76,35.200001 c -0.288413,-0.186387 -0.327882,-0.312156 -0.09889,-0.3151 0.209613,-0.0027 0.470111,0.1391 0.578885,0.3151 0.245538,0.397288 0.13476,0.397288 -0.48,0 z m -21.3593013,-7.84 c 0.003552,-0.704 0.0690829,-0.954322 0.14562479,-0.556269 0.0765418,0.398052 0.0736358,0.974052 -0.006458,1.28 -0.0800936,0.305948 -0.14271877,-0.01973 -0.13916696,-0.723731 z m 50.2776903,-2.72 c 0,-1.848001 0.05289,-2.604001 0.117529,-1.680001 0.06464,0.924001 0.06464,2.436001 0,3.360001 -0.06464,0.924 -0.117529,0.168 -0.117529,-1.68 z M 0.37052632,21.76 c 0,-0.44 0.0726316,-0.62 0.16140351,-0.4 0.0887719,0.22 0.0887719,0.58 0,0.8 -0.0887719,0.22 -0.16140351,0.04 -0.16140351,-0.4 z M 13.170527,13.44 c 0,-0.44 0.07263,-0.62 0.161403,-0.4 0.08877,0.22 0.08877,0.58 0,0.8 -0.08877,0.22 -0.161403,0.04 -0.161403,-0.4 z m 1.370635,-3.6901769 c 0.341639,-0.2584026 0.989639,-0.4641865 1.44,-0.4572975 0.766502,0.011725 0.750018,0.042404 -0.257901,0.48 -1.373932,0.5965034 -1.98524,0.5847634 -1.182099,-0.022702 z m 20.978839,-0.021217 -0.8,-0.4887154 0.8,0.1756852 c 0.44,0.096627 0.908,0.1776515 1.04,0.1800547 0.132,0.0024 0.24,0.1483695 0.24,0.3243695 0,0.4362638 -0.334413,0.3862598 -1.28,-0.191394 z"
         id="path6" />
      <path
         style="fill:#107cc1"
         d="m 20.8,37.908742 c 0,-0.375568 -0.1369,-0.417992 -0.581317,-0.180147 -0.462475,0.247509 -0.845572,0.06991 -1.873914,-0.868741 C 17.633841,36.210935 16.961571,35.421791 16.850834,35.106201 16.693677,34.658315 16.518771,34.602363 16.053771,34.851224 15.441148,35.17909 14.72,34.77899 14.72,34.111235 c 0,-0.176421 -0.415227,-0.759621 -0.922727,-1.296 -0.656182,-0.693521 -1.171521,-1.864963 -1.784001,-4.055297 -0.729762,-2.609756 -0.841184,-3.538134 -0.729705,-6.08 0.109463,-2.495914 0.215392,-2.985433 0.630489,-2.913605 0.310481,0.05373 0.629954,-0.289548 0.845848,-0.908862 0.628041,-1.801599 1.405132,-0.681843 2.458453,3.542529 0.59558,2.388588 0.542033,2.6768 -0.178357,0.960001 L 14.435759,21.92 l -0.01788,1.988817 c -0.01987,2.210497 0.629256,4.464715 1.768407,6.141127 l 0.752526,1.107441 -0.154361,-1.258692 c -0.115943,-0.945419 0.0034,-0.741005 0.479351,0.821308 0.348543,1.144 0.638773,2.309876 0.644956,2.590836 0.0062,0.280959 0.237789,0.964959 0.51468,1.52 0.451985,0.906025 0.649239,1.009164 1.930043,1.009164 1.601784,0 1.92769,0.389218 1.4275,1.704816 C 21.428786,38.471161 20.8,38.704428 20.8,37.908742 Z m 8.658567,-0.892243 C 29.07664,36.00667 29.34415,35.78414 30.812566,35.890163 c 1.154451,0.08335 1.37513,-0.01704 1.88576,-0.857881 0.318068,-0.523754 0.581249,-1.312281 0.584848,-1.752281 0.0087,-1.059582 0.90702,-3.911939 0.93542,-2.970043 0.02454,0.814007 0.793931,0.697259 1.15129,-0.174699 0.510095,-1.244634 1.087407,-4.159065 1.088541,-5.495258 0.0012,-1.371832 -0.02291,-1.409704 -0.508593,-0.8 -0.497299,0.624288 -0.505019,0.62036 -0.314463,-0.16 0.107443,-0.44 0.360175,-1.628001 0.561625,-2.640001 0.201451,-1.012 0.477452,-1.84 0.613336,-1.84 0.135884,0 0.412544,-0.468 0.614799,-1.04 0.322498,-0.912062 0.40748,-0.970316 0.690818,-0.473542 0.177696,0.311551 0.245588,0.815551 0.150873,1.12 -0.09472,0.304448 -0.03149,0.769542 0.140494,1.033542 0.260512,0.399888 0.345635,0.359831 0.510017,-0.24 0.342335,-1.249183 0.783961,-0.781449 0.755346,0.8 -0.01513,0.836 -0.01075,2.744001 0.0097,4.240001 0.02491,1.819375 -0.128261,3.113931 -0.462586,3.909722 -0.274902,0.654347 -0.499822,1.525122 -0.499822,1.935056 0,0.4455 -0.505122,1.238574 -1.255639,1.971434 -0.690601,0.674354 -1.343398,1.57576 -1.45066,2.003124 -0.147898,0.589271 -0.343827,0.729796 -0.810859,0.581566 -0.421968,-0.133927 -0.746011,0.01718 -1.02934,0.479994 -0.563144,0.919892 -2.426491,2.037576 -3.538397,2.122423 -0.680625,0.05194 -0.980188,-0.107661 -1.176539,-0.626821 z m 4.806697,-8.083165 c 0.01535,-0.372782 0.09118,-0.448608 0.193333,-0.193333 0.09244,0.231 0.08107,0.507 -0.02526,0.613333 -0.106333,0.106333 -0.181965,-0.08267 -0.16807,-0.42 z m -17.920001,-0.96 c 0.01535,-0.372782 0.09118,-0.448608 0.193334,-0.193333 0.09244,0.231 0.08107,0.507 -0.02526,0.613333 -0.106334,0.106333 -0.181965,-0.08267 -0.168071,-0.42 z m 18.240001,-0.32 c 0.01535,-0.372782 0.09118,-0.448608 0.193333,-0.193333 0.09244,0.231 0.08107,0.507 -0.02526,0.613333 -0.106333,0.106333 -0.181965,-0.08267 -0.16807,-0.42 z m -1.9954,-11.323743 c -0.08624,-0.258724 -0.794241,-0.652679 -1.573333,-0.875455 L 29.6,15.049089 l 1.44,0.171835 c 1.57538,0.18799 2.068129,0.494691 1.849334,1.151076 -0.1127,0.338101 -0.175603,0.329193 -0.29947,-0.04241 z M 18.24,16.00584 c 0,-0.3878 2.118148,-1.044218 2.797412,-0.866922 0.385804,0.100699 0.311202,0.159125 -0.237412,0.185933 -0.44,0.0215 -1.196,0.245665 -1.68,0.498144 -0.484,0.252478 -0.88,0.334758 -0.88,0.182845 z m 4.4,-1.191674 c 0.396,-0.07627 1.044,-0.07627 1.44,0 0.396,0.07627 0.072,0.138678 -0.72,0.138678 -0.792,0 -1.116,-0.06241 -0.72,-0.138678 z m 4.48,0 c 0.396,-0.07627 1.044,-0.07627 1.44,0 0.396,0.07627 0.072,0.138678 -0.72,0.138678 -0.792,0 -1.116,-0.06241 -0.72,-0.138678 z"
         id="path5" />
      <path
         style="fill:#0e70b5"
         d="M 19.772185,40.361581 C 15.187019,38.399214 12.519497,36.023009 10.493929,32.096593 9.1423192,29.476596 8.6373027,27.323056 8.6478228,24.22425 c 0.010293,-3.031784 0.3564581,-4.409516 1.9427512,-7.732114 0.955191,-2.000713 1.464664,-2.737612 1.842417,-2.664864 0.642229,0.123682 1.191732,1.255056 1.483085,3.053531 0.189214,1.16799 0.147845,1.332941 -0.291968,1.164169 -0.370178,-0.142051 -0.609396,0.08155 -0.861775,0.80553 -0.217812,0.624816 -0.537216,0.969656 -0.848277,0.915831 -0.415097,-0.07183 -0.521026,0.417691 -0.630489,2.913605 -0.111479,2.541866 -5.7e-5,3.470244 0.729705,6.08 0.61248,2.190334 1.127819,3.361776 1.784001,4.055297 0.5075,0.536379 0.922727,1.119579 0.922727,1.296 0,0.667755 0.721148,1.067855 1.333771,0.739989 0.465,-0.248861 0.639906,-0.192909 0.797063,0.254977 0.110737,0.31559 0.783007,1.104734 1.493935,1.753653 1.028342,0.938648 1.411439,1.11625 1.873914,0.868741 C 20.6631,37.49075 20.8,37.533174 20.8,37.908742 c 0,0.752979 0.67332,0.583337 0.907887,-0.228741 0.161086,-0.557686 0.244507,-0.395372 0.370042,0.72 l 0.162071,1.44 3.173554,0.09223 c 3.594478,0.104467 3.682916,0.05285 3.72183,-2.172234 0.02021,-1.155652 0.08061,-1.302467 0.305894,-0.743502 0.207962,0.515994 0.517354,0.678441 1.193828,0.626821 1.111906,-0.08485 2.975253,-1.202531 3.538397,-2.122423 0.283329,-0.462816 0.607372,-0.613921 1.02934,-0.479994 0.467032,0.14823 0.662961,0.0077 0.810859,-0.581566 0.107262,-0.427364 0.760059,-1.32877 1.45066,-2.003124 0.750517,-0.73286 1.255639,-1.525934 1.255639,-1.971434 0,-0.409934 0.22492,-1.280709 0.499822,-1.935056 0.334325,-0.795791 0.487493,-2.090347 0.462586,-3.909722 -0.02048,-1.496 -0.02486,-3.404001 -0.0097,-4.240001 0.02862,-1.581449 -0.413011,-2.049183 -0.755346,-0.8 -0.164382,0.599831 -0.249505,0.639888 -0.510017,0.24 -0.171987,-0.264 -0.235209,-0.729094 -0.140494,-1.033542 0.09472,-0.304449 0.03243,-0.803309 -0.138404,-1.108579 -0.2689,-0.480497 -0.378404,-0.406158 -0.815394,0.553543 L 36.808242,19.36 36.983118,18.24 c 0.480942,-3.080217 0.881571,-4.408005 1.310997,-4.344979 0.904072,0.13269 2.304338,2.362417 3.312795,5.275165 0.984561,2.843727 1.024047,3.137713 0.811094,6.038799 -0.27034,3.682867 -0.9782,5.700033 -3.128361,8.914791 -1.612613,2.411056 -3.212494,3.832716 -5.76764,5.125145 -3.461933,1.751094 -3.526573,1.767257 -7.602003,1.900807 -3.838125,0.125775 -4.086919,0.09388 -6.147815,-0.788147 z m 4.141149,0.08509 C 23.807,40.340334 23.531,40.328966 23.3,40.421404 c -0.255274,0.102153 -0.179448,0.177979 0.193334,0.193334 0.337333,0.01389 0.526333,-0.06174 0.42,-0.16807 z m 4.16,0 C 27.967,40.340334 27.691,40.328966 27.46,40.421404 c -0.255274,0.102153 -0.179448,0.177979 0.193334,0.193334 0.337333,0.01389 0.526333,-0.06174 0.42,-0.16807 z M 20.48,35.899799 c -1.95848,-0.136281 -2.465794,-0.701236 -0.624,-0.694898 1.260482,0.0043 2.623335,0.433673 2.214733,0.6977 -0.0829,0.05357 -0.798733,0.05231 -1.590733,-0.0028 z m 8.639752,-0.105562 c 4.23e-4,-0.350918 0.954647,-0.594236 2.33042,-0.594236 0.979392,0 1.224992,0.09284 0.956337,0.361492 -0.38061,0.38061 -3.287183,0.586432 -3.286757,0.232744 z m 3.865512,-2.060903 c 0.01535,-0.372782 0.09118,-0.448608 0.193333,-0.193333 0.09244,0.231 0.08107,0.507 -0.02526,0.613333 -0.106334,0.106333 -0.181965,-0.08267 -0.16807,-0.42 z M 17.92,15.6583 c 0,-0.301198 1.534334,-0.790633 1.76269,-0.562277 0.07309,0.07309 -0.29362,0.293872 -0.814903,0.490635 C 18.346504,15.78342 17.92,15.815659 17.92,15.6583 Z M 32,15.36 c -0.659056,-0.211066 -0.687245,-0.260961 -0.16,-0.283202 0.352,-0.01485 0.856,0.112592 1.12,0.283202 0.560686,0.362343 0.171417,0.362343 -0.96,0 z m 10.519183,-0.213351 c -0.24155,-0.293344 -0.986073,-0.930685 -1.654496,-1.416313 -0.668422,-0.485629 -1.529138,-1.281925 -1.912702,-1.769547 -0.470748,-0.59846 -0.0783,-0.382334 1.207585,0.665036 1.047735,0.853392 2.170902,1.889696 2.495927,2.302898 0.666439,0.84724 0.543598,1.043624 -0.136314,0.217926 z M 20.56,14.819416 c 0.308,-0.08049 0.812,-0.08049 1.12,0 0.308,0.08049 0.056,0.146343 -0.56,0.146343 -0.616,0 -0.868,-0.06585 -0.56,-0.146343 z m 8.96,0 c 0.308,-0.08049 0.812,-0.08049 1.12,0 0.308,0.08049 0.056,0.146343 -0.56,0.146343 -0.616,0 -0.868,-0.06585 -0.56,-0.146343 z m -5.6,-0.335333 c 0.924,-0.06464 2.436,-0.06464 3.36,0 0.924,0.06464 0.168,0.117529 -1.68,0.117529 -1.848,0 -2.604,-0.05289 -1.68,-0.117529 z M 10.88,12.037322 c 0,-0.06747 0.288199,-0.198043 0.640442,-0.290157 0.352243,-0.09211 0.559744,-0.03691 0.461114,0.122678 C 11.809316,12.148534 10.88,12.289826 10.88,12.037322 Z m 3.908741,-0.348411 c 0.125808,-0.139183 0.08474,-0.522126 -0.09126,-0.850985 -0.269281,-0.503155 -0.204096,-0.597233 0.411258,-0.593556 1.024443,0.0061 2.171259,0.343239 2.171259,0.638262 0,0.136393 -0.346622,0.334984 -0.770271,0.441313 -0.42365,0.106329 -1.03565,0.288883 -1.360001,0.405676 -0.32435,0.116793 -0.486794,0.09847 -0.360987,-0.04071 z m 20.17126,-0.20692 c -1.212288,-0.350036 -1.340492,-0.766818 -0.32,-1.040299 1.562341,-0.418692 2.081763,-0.256688 1.91832,0.598308 -0.08411,0.44 -0.244143,0.787013 -0.355625,0.77114 -0.111483,-0.01587 -0.670695,-0.16399 -1.242695,-0.329149 z"
         id="path4" />
      <path
         style="fill:#0a4e91"
         d="M 21.514024,42.228603 C 20.058737,41.90001 18.004181,41.170725 16.948345,40.60797 12.854545,38.425997 8.9546803,33.759187 7.7828829,29.640033 7.2814638,27.877422 6.7573858,27.287027 6.6821394,28.400001 6.5830772,29.865235 6.1513345,26.721487 6.1178608,24.291189 6.0816469,21.661938 6.9392658,17.083228 7.6344062,16.19456 7.7869465,15.999552 7.9987355,15.48 8.1050484,15.04 c 0.3118304,-1.29058 2.1040976,-3.25292 2.7761736,-3.039612 0.338179,0.107334 1.070052,-0.152346 1.7721,-0.628768 1.368838,-0.928919 1.920753,-1.013459 2.18143,-0.334143 0.119487,0.311378 -0.146896,0.648189 -0.765763,0.968218 C 13.420171,12.341211 13.12,12.737405 13.12,13.25826 c 0,0.587226 -0.137448,0.72588 -0.599727,0.604992 -0.489172,-0.127922 -0.844004,0.354822 -1.924854,2.618734 -1.5912043,3.332886 -1.9372975,4.708708 -1.9475962,7.742264 -0.010498,3.092307 0.4941718,5.251717 1.8346212,7.85008 2.093218,4.057551 5.092459,6.653608 9.737662,8.428638 2.135415,0.815988 2.488114,0.856517 5.984521,0.68769 3.720482,-0.179647 3.958653,-0.242848 7.317376,-1.941737 2.555146,-1.292429 4.155027,-2.714089 5.76764,-5.125145 2.150161,-3.214758 2.858021,-5.231924 3.128361,-8.914791 0.212777,-2.898691 0.172908,-3.196686 -0.805961,-6.023973 -0.99089,-2.862007 -2.687579,-5.589148 -3.257967,-5.236629 -0.150741,0.09316 -0.274075,-0.202197 -0.274075,-0.656358 0,-0.570261 -0.247519,-0.938523 -0.8,-1.19025 C 36.401237,11.701383 36.181269,10.56 36.982869,10.56 c 0.276578,0 1.176578,0.63781 2,1.417355 0.823423,0.779546 2.183112,2.023711 3.021532,2.764812 2.179791,1.926773 2.968537,4.51284 2.921223,9.577834 -0.02331,2.495493 -0.200164,4.143502 -0.549443,5.12 -0.400227,1.118935 -0.476078,1.20812 -0.340198,0.4 0.09618,-0.572 0.109618,-1.04 0.02987,-1.04 -0.07975,0 -0.597506,0.947305 -1.150564,2.105124 -3.075355,6.438207 -7.335345,10.02277 -13.469098,11.333554 -3.596185,0.768505 -4.488974,0.767371 -7.932163,-0.01008 z M 23.3,40.421404 c 0.231,-0.09244 0.507,-0.08107 0.613334,0.02526 0.106333,0.106333 -0.08267,0.181964 -0.42,0.16807 C 23.120552,40.599383 23.044726,40.523557 23.3,40.421404 Z m 4.16,0 c 0.231,-0.09244 0.507,-0.08107 0.613334,0.02526 0.106333,0.106333 -0.08267,0.181964 -0.42,0.16807 C 27.280552,40.599383 27.204726,40.523557 27.46,40.421404 Z M 6.7452633,29.573334 c 0.015355,-0.372782 0.091181,-0.448608 0.1933333,-0.193333 0.092439,0.231 0.08107,0.507 -0.025263,0.613333 -0.1063333,0.106333 -0.1819649,-0.08267 -0.1680701,-0.42 z"
         id="path3" />
      <path
         style="fill:#133a72"
         d="m 25.28,67.218887 c 0,-0.362387 0.144,-0.658886 0.32,-0.658886 0.176,0 0.32,0.207502 0.32,0.461115 0,0.253613 -0.144,0.550111 -0.32,0.658885 -0.176,0.108774 -0.32,-0.09873 -0.32,-0.461114 z M 20.544549,43.212374 C 13.530075,41.316238 8.1097112,35.697771 6.8718811,29.040001 6.522019,27.158239 7.2048082,27.607959 7.7828829,29.640033 c 1.2127494,4.26311 5.2581591,8.995659 9.5061661,11.12085 1.343403,0.672078 3.315166,1.295554 5.24928,1.659836 3.068842,0.578004 3.129112,0.57705 6.473839,-0.102468 6.517136,-1.324027 10.739531,-4.790209 13.903117,-11.413126 0.553058,-1.157819 1.065895,-2.105124 1.139638,-2.105124 0.367441,0 -0.406469,2.655548 -1.352241,4.64 -1.997119,4.190425 -5.994699,7.675352 -10.709904,9.336459 -3.289327,1.158789 -8.096872,1.341845 -11.448229,0.435914 z"
         id="path2" />
    </g>
  </g>
</svg>
